<svg width="25" height="24" viewBox="0 0 25 24" fill="none" xmlns="http://www.w3.org/2000/svg">
<path opacity="0.1" d="M13.7235 0.24946C12.9587 0.0831529 12.1939 0 11.3866 0C5.0985 0 0 4.98921 0 11.1426C0 14.0114 1.10468 16.6307 2.93164 18.5848L13.7235 14.2608V0.24946V0.24946Z" fill="#0C1E5B"/>
<path d="M13.6133 23.3657C19.902 23.3657 25 18.377 25 12.2231C25 6.06927 19.902 1.08057 13.6133 1.08057C7.32466 1.08057 2.22668 6.06927 2.22668 12.2231C2.22668 18.377 7.32466 23.3657 13.6133 23.3657Z" fill="#FFCC00"/>
<path d="M18.6667 20.3334V14.4167C18.6665 13.6506 18.5457 12.8919 18.3109 12.1841C18.0762 11.4764 17.7322 10.8333 17.2987 10.2917L15.9987 8.66675V14.1559C15.9987 14.8976 15.2807 15.2701 14.8607 14.7451L13.9973 13.6667C13.664 13.2501 12.8633 13.0001 12.3293 13.6667C11.796 14.3334 11.996 15.3334 12.3293 15.7501L15.9987 20.3334" stroke="#754F0A" stroke-width="2" stroke-linecap="round" stroke-linejoin="round"/>
<path d="M13.3334 3.66675H14.6667C15.0203 3.66675 15.3595 3.84234 15.6095 4.1549C15.8596 4.46746 16 4.89139 16 5.33341V7.00008M13.3334 3.66675C13.3334 4.77758 13.8667 7.00008 16 7.00008M13.3334 3.66675H12M16 7.00008V12.0001M12 3.66675H10.6667C10.3131 3.66675 9.97395 3.84234 9.7239 4.1549C9.47385 4.46746 9.33337 4.89139 9.33337 5.33341V7.00008M12 3.66675C12 4.77758 11.4667 7.00008 9.33337 7.00008M9.33337 12.0001V13.6667C9.33337 14.1088 9.47385 14.5327 9.7239 14.8453C9.97395 15.1578 10.3131 15.3334 10.6667 15.3334H12C12 14.2226 11.4667 12.0001 9.33337 12.0001ZM9.33337 12.0001V7.00008" stroke="#754F0A" stroke-width="2" stroke-linecap="round" stroke-linejoin="round"/>
<path d="M12 9.50008C12 9.96032 12.2985 10.3334 12.6667 10.3334C13.0349 10.3334 13.3334 9.96032 13.3334 9.50008C13.3334 9.03984 13.0349 8.66675 12.6667 8.66675C12.2985 8.66675 12 9.03984 12 9.50008Z" stroke="#754F0A" stroke-width="2" stroke-linecap="round" stroke-linejoin="round"/>
</svg>
