<svg width="27" height="25" viewBox="0 0 27 25" fill="none" xmlns="http://www.w3.org/2000/svg">
<path opacity="0.1" d="M12.5903 24.5992V2.33912C12.1268 2.26115 11.6247 2.22217 11.1227 2.22217C4.98203 2.22217 0 7.25115 0 13.4497C0 19.6482 4.98203 24.6772 11.1227 24.6772C11.6247 24.7161 12.1268 24.6772 12.5903 24.5992Z" fill="#0C1E5B"/>
<path d="M15.024 22.4552C21.167 22.4552 26.1468 17.4285 26.1468 11.2276C26.1468 5.02678 21.167 0 15.024 0C8.88109 0 3.90125 5.02678 3.90125 11.2276C3.90125 17.4285 8.88109 22.4552 15.024 22.4552Z" fill="#FF5B5B"/>
<path d="M19.3905 6.64893L10.3109 15.8028M10.3109 6.64893L19.3905 15.8028" stroke="white" stroke-width="4"/>
<path d="M19.3905 6.64893L10.3109 15.8028M10.3109 6.64893L19.3905 15.8028" stroke="white" stroke-width="4"/>
</svg>
