<svg width="354" height="256" viewBox="0 0 354 256" fill="none" xmlns="http://www.w3.org/2000/svg">
<path d="M4.30036 163.354C4.29036 163.374 4.29036 163.394 4.30036 163.414C4.31036 163.424 4.32536 163.429 4.34536 163.429H8.86036C8.96036 163.429 9.01036 163.479 9.01036 163.579V164.524C9.01036 164.624 8.96036 164.674 8.86036 164.674H2.57536C2.47536 164.674 2.42536 164.624 2.42536 164.524V163.609C2.42536 163.539 2.45036 163.479 2.50036 163.429C2.84036 163.039 3.62036 162.124 4.84036 160.684L5.87536 159.439C6.80536 158.329 7.27036 157.469 7.27036 156.859C7.27036 156.389 7.11036 156.014 6.79036 155.734C6.48036 155.444 6.06536 155.299 5.54536 155.299C5.02536 155.299 4.61036 155.444 4.30036 155.734C3.99036 156.024 3.84036 156.404 3.85036 156.874V157.324C3.85036 157.424 3.80036 157.474 3.70036 157.474H2.54536C2.44536 157.474 2.39536 157.424 2.39536 157.324V156.679C2.41536 156.159 2.56036 155.699 2.83036 155.299C3.11036 154.899 3.48536 154.594 3.95536 154.384C4.42536 154.164 4.95536 154.054 5.54536 154.054C6.18536 154.054 6.74536 154.174 7.22536 154.414C7.70536 154.654 8.07536 154.984 8.33536 155.404C8.59536 155.824 8.72536 156.299 8.72536 156.829C8.72536 157.659 8.27536 158.639 7.37536 159.769C6.97536 160.279 6.50036 160.854 5.95036 161.494C5.40036 162.124 4.85036 162.744 4.30036 163.354ZM14.0045 164.824C12.9945 164.824 12.1895 164.539 11.5895 163.969C10.9995 163.389 10.7045 162.614 10.7045 161.644V157.204C10.7045 156.234 10.9995 155.464 11.5895 154.894C12.1895 154.324 12.9945 154.039 14.0045 154.039C15.0145 154.039 15.8195 154.324 16.4195 154.894C17.0295 155.464 17.3345 156.234 17.3345 157.204V161.644C17.3345 162.614 17.0295 163.389 16.4195 163.969C15.8195 164.539 15.0145 164.824 14.0045 164.824ZM14.0045 163.579C14.5845 163.579 15.0445 163.414 15.3845 163.084C15.7245 162.744 15.8945 162.294 15.8945 161.734V157.144C15.8945 156.584 15.7245 156.139 15.3845 155.809C15.0445 155.469 14.5845 155.299 14.0045 155.299C13.4445 155.299 12.9945 155.469 12.6545 155.809C12.3145 156.139 12.1445 156.584 12.1445 157.144V161.734C12.1445 162.294 12.3145 162.744 12.6545 163.084C12.9945 163.414 13.4445 163.579 14.0045 163.579Z" fill="#A3A3A3"/>
<path d="M18.7692 215.966C17.7592 215.966 16.9542 215.681 16.3542 215.111C15.7642 214.531 15.4692 213.756 15.4692 212.786V208.346C15.4692 207.376 15.7642 206.606 16.3542 206.036C16.9542 205.466 17.7592 205.181 18.7692 205.181C19.7792 205.181 20.5842 205.466 21.1842 206.036C21.7942 206.606 22.0992 207.376 22.0992 208.346V212.786C22.0992 213.756 21.7942 214.531 21.1842 215.111C20.5842 215.681 19.7792 215.966 18.7692 215.966ZM18.7692 214.721C19.3492 214.721 19.8092 214.556 20.1492 214.226C20.4892 213.886 20.6592 213.436 20.6592 212.876V208.286C20.6592 207.726 20.4892 207.281 20.1492 206.951C19.8092 206.611 19.3492 206.441 18.7692 206.441C18.2092 206.441 17.7592 206.611 17.4192 206.951C17.0792 207.281 16.9092 207.726 16.9092 208.286V212.876C16.9092 213.436 17.0792 213.886 17.4192 214.226C17.7592 214.556 18.2092 214.721 18.7692 214.721Z" fill="#A3A3A3"/>
<path d="M7.56 112.316C7.66 112.316 7.71 112.366 7.71 112.466V113.456C7.71 113.556 7.66 113.606 7.56 113.606H6.915C6.875 113.606 6.855 113.626 6.855 113.666V116.276C6.855 116.376 6.805 116.426 6.705 116.426H5.565C5.465 116.426 5.415 116.376 5.415 116.276V113.666C5.415 113.626 5.395 113.606 5.355 113.606H0.795C0.695 113.606 0.645 113.556 0.645 113.456V112.646C0.645 112.596 0.66 112.536 0.69 112.466L3.645 106.031C3.675 105.961 3.73 105.926 3.81 105.926H5.01C5.06 105.926 5.095 105.946 5.115 105.986C5.145 106.016 5.15 106.056 5.13 106.106L2.31 112.241C2.3 112.261 2.3 112.281 2.31 112.301C2.32 112.311 2.335 112.316 2.355 112.316H5.355C5.395 112.316 5.415 112.296 5.415 112.256V110.021C5.415 109.921 5.465 109.871 5.565 109.871H6.705C6.805 109.871 6.855 109.921 6.855 110.021V112.256C6.855 112.296 6.875 112.316 6.915 112.316H7.56ZM12.7847 116.576C11.7747 116.576 10.9697 116.291 10.3697 115.721C9.77969 115.141 9.48469 114.366 9.48469 113.396V108.956C9.48469 107.986 9.77969 107.216 10.3697 106.646C10.9697 106.076 11.7747 105.791 12.7847 105.791C13.7947 105.791 14.5997 106.076 15.1997 106.646C15.8097 107.216 16.1147 107.986 16.1147 108.956V113.396C16.1147 114.366 15.8097 115.141 15.1997 115.721C14.5997 116.291 13.7947 116.576 12.7847 116.576ZM12.7847 115.331C13.3647 115.331 13.8247 115.166 14.1647 114.836C14.5047 114.496 14.6747 114.046 14.6747 113.486V108.896C14.6747 108.336 14.5047 107.891 14.1647 107.561C13.8247 107.221 13.3647 107.051 12.7847 107.051C12.2247 107.051 11.7747 107.221 11.4347 107.561C11.0947 107.891 10.9247 108.336 10.9247 108.896V113.486C10.9247 114.046 11.0947 114.496 11.4347 114.836C11.7747 115.166 12.2247 115.331 12.7847 115.331Z" fill="#A3A3A3"/>
<path d="M6.765 62.0379C7.045 62.5679 7.185 63.2029 7.185 63.9429C7.185 64.5529 7.085 65.0879 6.885 65.5479C6.655 66.1179 6.295 66.5579 5.805 66.8679C5.325 67.1679 4.74 67.3179 4.05 67.3179C3.31 67.3179 2.68 67.1479 2.16 66.8079C1.65 66.4679 1.29 65.9879 1.08 65.3679C0.93 64.9479 0.855 64.4629 0.855 63.9129V59.2929C0.855 58.4729 1.14 57.8179 1.71 57.3279C2.28 56.8379 3.025 56.5929 3.945 56.5929C4.535 56.5929 5.055 56.7029 5.505 56.9229C5.965 57.1429 6.32 57.4529 6.57 57.8529C6.82 58.2429 6.945 58.6929 6.945 59.2029V59.5029C6.945 59.6029 6.895 59.6529 6.795 59.6529H5.655C5.555 59.6529 5.505 59.6029 5.505 59.5029V59.3679C5.505 58.9179 5.36 58.5529 5.07 58.2729C4.78 57.9929 4.405 57.8529 3.945 57.8529C3.455 57.8529 3.055 57.9979 2.745 58.2879C2.445 58.5779 2.295 58.9629 2.295 59.4429V61.3329C2.295 61.3529 2.3 61.3679 2.31 61.3779C2.33 61.3779 2.35 61.3679 2.37 61.3479C2.8 60.8679 3.425 60.6279 4.245 60.6279C5.425 60.6279 6.265 61.0979 6.765 62.0379ZM5.52 65.0979C5.67 64.7779 5.745 64.3929 5.745 63.9429C5.745 63.4329 5.655 63.0229 5.475 62.7129C5.185 62.1329 4.695 61.8429 4.005 61.8429C3.655 61.8429 3.355 61.9229 3.105 62.0829C2.855 62.2329 2.665 62.4529 2.535 62.7429C2.375 63.0729 2.295 63.4979 2.295 64.0179C2.295 64.4379 2.36 64.7929 2.49 65.0829C2.62 65.4029 2.815 65.6479 3.075 65.8179C3.335 65.9779 3.65 66.0579 4.02 66.0579C4.75 66.0579 5.25 65.7379 5.52 65.0979ZM12.0816 67.3629C11.0716 67.3629 10.2666 67.0779 9.66656 66.5079C9.07656 65.9279 8.78156 65.1529 8.78156 64.1829V59.7429C8.78156 58.7729 9.07656 58.0029 9.66656 57.4329C10.2666 56.8629 11.0716 56.5779 12.0816 56.5779C13.0916 56.5779 13.8966 56.8629 14.4966 57.4329C15.1066 58.0029 15.4116 58.7729 15.4116 59.7429V64.1829C15.4116 65.1529 15.1066 65.9279 14.4966 66.5079C13.8966 67.0779 13.0916 67.3629 12.0816 67.3629ZM12.0816 66.1179C12.6616 66.1179 13.1216 65.9529 13.4616 65.6229C13.8016 65.2829 13.9716 64.8329 13.9716 64.2729V59.6829C13.9716 59.1229 13.8016 58.6779 13.4616 58.3479C13.1216 58.0079 12.6616 57.8379 12.0816 57.8379C11.5216 57.8379 11.0716 58.0079 10.7316 58.3479C10.3916 58.6779 10.2216 59.1229 10.2216 59.6829V64.2729C10.2216 64.8329 10.3916 65.2829 10.7316 65.6229C11.0716 65.9529 11.5216 66.1179 12.0816 66.1179Z" fill="#A3A3A3"/>
<path d="M6.81 13.515C7.02 13.935 7.125 14.435 7.125 15.015C7.125 15.655 6.985 16.215 6.705 16.695C6.465 17.145 6.105 17.495 5.625 17.745C5.155 17.995 4.6 18.12 3.96 18.12C3.32 18.12 2.755 17.995 2.265 17.745C1.775 17.485 1.405 17.115 1.155 16.635C0.885 16.165 0.75 15.62 0.75 15C0.75 14.45 0.86 13.945 1.08 13.485C1.3 13.025 1.625 12.68 2.055 12.45C2.105 12.43 2.105 12.405 2.055 12.375C1.735 12.135 1.495 11.885 1.335 11.625C1.055 11.205 0.915 10.725 0.915 10.185C0.915 9.595 1.085 9.055 1.425 8.565C1.675 8.185 2.02 7.885 2.46 7.665C2.91 7.445 3.41 7.335 3.96 7.335C4.52 7.335 5.015 7.445 5.445 7.665C5.875 7.885 6.215 8.185 6.465 8.565C6.795 9.055 6.96 9.595 6.96 10.185C6.96 10.725 6.82 11.215 6.54 11.655C6.36 11.935 6.125 12.175 5.835 12.375C5.785 12.405 5.785 12.43 5.835 12.45C6.255 12.68 6.58 13.035 6.81 13.515ZM2.55 9.42C2.41 9.68 2.34 9.935 2.34 10.185C2.34 10.585 2.435 10.92 2.625 11.19C2.895 11.64 3.335 11.865 3.945 11.865C4.545 11.865 4.99 11.635 5.28 11.175C5.45 10.935 5.535 10.6 5.535 10.17C5.535 9.89 5.47 9.635 5.34 9.405C5.21 9.155 5.025 8.955 4.785 8.805C4.545 8.655 4.26 8.58 3.93 8.58C3.62 8.58 3.345 8.655 3.105 8.805C2.865 8.955 2.68 9.16 2.55 9.42ZM5.325 16.185C5.555 15.865 5.67 15.435 5.67 14.895C5.67 14.415 5.585 14.02 5.415 13.71C5.135 13.19 4.645 12.93 3.945 12.93C3.265 12.93 2.785 13.175 2.505 13.665C2.315 13.985 2.22 14.4 2.22 14.91C2.22 15.41 2.325 15.82 2.535 16.14C2.825 16.62 3.3 16.86 3.96 16.86C4.58 16.86 5.035 16.635 5.325 16.185ZM12.1402 18.15C11.1302 18.15 10.3252 17.865 9.72516 17.295C9.13516 16.715 8.84016 15.94 8.84016 14.97V10.53C8.84016 9.56 9.13516 8.79 9.72516 8.22C10.3252 7.65 11.1302 7.365 12.1402 7.365C13.1502 7.365 13.9552 7.65 14.5552 8.22C15.1652 8.79 15.4702 9.56 15.4702 10.53V14.97C15.4702 15.94 15.1652 16.715 14.5552 17.295C13.9552 17.865 13.1502 18.15 12.1402 18.15ZM12.1402 16.905C12.7202 16.905 13.1802 16.74 13.5202 16.41C13.8602 16.07 14.0302 15.62 14.0302 15.06V10.47C14.0302 9.91 13.8602 9.465 13.5202 9.135C13.1802 8.795 12.7202 8.625 12.1402 8.625C11.5802 8.625 11.1302 8.795 10.7902 9.135C10.4502 9.465 10.2802 9.91 10.2802 10.47V15.06C10.2802 15.62 10.4502 16.07 10.7902 16.41C11.1302 16.74 11.5802 16.905 12.1402 16.905Z" fill="#A3A3A3"/>
<path d="M32.0651 250.555C31.9651 250.555 31.9151 250.505 31.9151 250.405V240.205C31.9151 240.105 31.9651 240.055 32.0651 240.055H33.2051C33.3051 240.055 33.3551 240.105 33.3551 240.205V250.405C33.3551 250.505 33.3051 250.555 33.2051 250.555H32.0651ZM39.9904 243.07C39.9904 242.97 40.0404 242.92 40.1404 242.92H41.2654C41.3654 242.92 41.4154 242.97 41.4154 243.07V250.405C41.4154 250.505 41.3654 250.555 41.2654 250.555H40.1404C40.0404 250.555 39.9904 250.505 39.9904 250.405V249.85C39.9904 249.83 39.9804 249.82 39.9604 249.82C39.9504 249.81 39.9354 249.815 39.9154 249.835C39.5154 250.385 38.9004 250.66 38.0704 250.66C37.5804 250.66 37.1254 250.565 36.7054 250.375C36.2954 250.185 35.9654 249.905 35.7154 249.535C35.4654 249.165 35.3404 248.715 35.3404 248.185V243.07C35.3404 242.97 35.3904 242.92 35.4904 242.92H36.6154C36.7154 242.92 36.7654 242.97 36.7654 243.07V247.735C36.7654 248.255 36.9004 248.665 37.1704 248.965C37.4504 249.265 37.8404 249.415 38.3404 249.415C38.8404 249.415 39.2404 249.265 39.5404 248.965C39.8404 248.655 39.9904 248.245 39.9904 247.735V243.07ZM46.9217 242.815C47.7417 242.815 48.3917 243.055 48.8717 243.535C49.3517 244.005 49.5917 244.645 49.5917 245.455V250.405C49.5917 250.505 49.5417 250.555 49.4417 250.555H48.3017C48.2017 250.555 48.1517 250.505 48.1517 250.405V245.74C48.1517 245.24 48.0067 244.835 47.7167 244.525C47.4267 244.215 47.0417 244.06 46.5617 244.06C46.0917 244.06 45.7067 244.215 45.4067 244.525C45.1067 244.835 44.9567 245.235 44.9567 245.725V250.405C44.9567 250.505 44.9067 250.555 44.8067 250.555H43.6667C43.5667 250.555 43.5167 250.505 43.5167 250.405V243.07C43.5167 242.97 43.5667 242.92 43.6667 242.92H44.8067C44.9067 242.92 44.9567 242.97 44.9567 243.07V243.61C44.9567 243.63 44.9617 243.645 44.9717 243.655C44.9917 243.665 45.0067 243.66 45.0167 243.64C45.4467 243.09 46.0817 242.815 46.9217 242.815Z" fill="#A3A3A3"/>
<path d="M131.985 243.26C132.745 243.26 133.345 243.49 133.785 243.95C134.225 244.4 134.445 245.03 134.445 245.84V250.85C134.445 250.95 134.395 251 134.295 251H133.17C133.07 251 133.02 250.95 133.02 250.85V246.14C133.02 245.64 132.88 245.245 132.6 244.955C132.33 244.655 131.965 244.505 131.505 244.505C131.045 244.505 130.67 244.65 130.38 244.94C130.09 245.23 129.945 245.62 129.945 246.11V250.85C129.945 250.95 129.895 251 129.795 251H128.67C128.57 251 128.52 250.95 128.52 250.85V246.14C128.52 245.64 128.38 245.245 128.1 244.955C127.83 244.655 127.465 244.505 127.005 244.505C126.545 244.505 126.175 244.65 125.895 244.94C125.625 245.23 125.49 245.62 125.49 246.11V250.85C125.49 250.95 125.44 251 125.34 251H124.2C124.1 251 124.05 250.95 124.05 250.85V243.515C124.05 243.415 124.1 243.365 124.2 243.365H125.34C125.44 243.365 125.49 243.415 125.49 243.515V244.025C125.49 244.045 125.495 244.06 125.505 244.07C125.525 244.08 125.545 244.075 125.565 244.055C126.005 243.525 126.645 243.26 127.485 243.26C127.995 243.26 128.43 243.36 128.79 243.56C129.15 243.75 129.43 244.035 129.63 244.415C129.66 244.455 129.69 244.455 129.72 244.415C129.96 244.025 130.275 243.735 130.665 243.545C131.065 243.355 131.505 243.26 131.985 243.26ZM142.535 246.23C142.575 246.64 142.59 247.1 142.58 247.61C142.58 247.71 142.53 247.76 142.43 247.76H137.645C137.605 247.76 137.585 247.78 137.585 247.82C137.585 248.16 137.615 248.42 137.675 248.6C137.785 249 138.005 249.315 138.335 249.545C138.675 249.765 139.1 249.875 139.61 249.875C140.35 249.875 140.92 249.57 141.32 248.96C141.37 248.86 141.435 248.845 141.515 248.915L142.37 249.485C142.44 249.545 142.455 249.61 142.415 249.68C142.135 250.13 141.735 250.485 141.215 250.745C140.705 251.005 140.125 251.135 139.475 251.135C138.745 251.135 138.13 250.975 137.63 250.655C137.13 250.335 136.755 249.88 136.505 249.29C136.265 248.7 136.145 247.985 136.145 247.145C136.145 246.415 136.2 245.86 136.31 245.48C136.49 244.79 136.85 244.245 137.39 243.845C137.93 243.445 138.585 243.245 139.355 243.245C140.365 243.245 141.12 243.5 141.62 244.01C142.12 244.51 142.425 245.25 142.535 246.23ZM139.355 244.49C138.925 244.49 138.57 244.6 138.29 244.82C138.01 245.03 137.82 245.315 137.72 245.675C137.65 245.895 137.605 246.175 137.585 246.515C137.585 246.555 137.605 246.575 137.645 246.575H141.08C141.12 246.575 141.14 246.555 141.14 246.515C141.12 246.185 141.09 245.94 141.05 245.78C140.95 245.39 140.75 245.08 140.45 244.85C140.16 244.61 139.795 244.49 139.355 244.49ZM147.742 243.29C148.062 243.29 148.352 243.355 148.612 243.485C148.682 243.515 148.707 243.575 148.687 243.665L148.447 244.79C148.437 244.88 148.377 244.91 148.267 244.88C148.097 244.81 147.897 244.775 147.667 244.775L147.457 244.79C146.987 244.81 146.597 244.975 146.287 245.285C145.987 245.585 145.837 245.98 145.837 246.47V250.85C145.837 250.95 145.787 251 145.687 251H144.547C144.447 251 144.397 250.95 144.397 250.85V243.515C144.397 243.415 144.447 243.365 144.547 243.365H145.687C145.787 243.365 145.837 243.415 145.837 243.515V244.31C145.837 244.34 145.842 244.36 145.852 244.37C145.872 244.37 145.887 244.36 145.897 244.34C146.347 243.64 146.962 243.29 147.742 243.29Z" fill="#A3A3A3"/>
<path d="M224.06 250C223.97 250 223.91 249.96 223.88 249.88L221.435 242.53L221.42 242.47C221.42 242.4 221.465 242.365 221.555 242.365H222.815C222.905 242.365 222.965 242.405 222.995 242.485L224.645 247.915C224.655 247.935 224.67 247.945 224.69 247.945C224.71 247.945 224.725 247.935 224.735 247.915L226.37 242.485C226.4 242.405 226.46 242.365 226.55 242.365L227.81 242.38C227.92 242.38 227.96 242.435 227.93 242.545L225.5 249.88C225.47 249.96 225.41 250 225.32 250H224.06ZM235.261 245.23C235.301 245.64 235.316 246.1 235.306 246.61C235.306 246.71 235.256 246.76 235.156 246.76H230.371C230.331 246.76 230.311 246.78 230.311 246.82C230.311 247.16 230.341 247.42 230.401 247.6C230.511 248 230.731 248.315 231.061 248.545C231.401 248.765 231.826 248.875 232.336 248.875C233.076 248.875 233.646 248.57 234.046 247.96C234.096 247.86 234.161 247.845 234.241 247.915L235.096 248.485C235.166 248.545 235.181 248.61 235.141 248.68C234.861 249.13 234.461 249.485 233.941 249.745C233.431 250.005 232.851 250.135 232.201 250.135C231.471 250.135 230.856 249.975 230.356 249.655C229.856 249.335 229.481 248.88 229.231 248.29C228.991 247.7 228.871 246.985 228.871 246.145C228.871 245.415 228.926 244.86 229.036 244.48C229.216 243.79 229.576 243.245 230.116 242.845C230.656 242.445 231.311 242.245 232.081 242.245C233.091 242.245 233.846 242.5 234.346 243.01C234.846 243.51 235.151 244.25 235.261 245.23ZM232.081 243.49C231.651 243.49 231.296 243.6 231.016 243.82C230.736 244.03 230.546 244.315 230.446 244.675C230.376 244.895 230.331 245.175 230.311 245.515C230.311 245.555 230.331 245.575 230.371 245.575H233.806C233.846 245.575 233.866 245.555 233.866 245.515C233.846 245.185 233.816 244.94 233.776 244.78C233.676 244.39 233.476 244.08 233.176 243.85C232.886 243.61 232.521 243.49 232.081 243.49ZM240.528 242.26C241.348 242.26 241.998 242.5 242.478 242.98C242.958 243.45 243.198 244.09 243.198 244.9V249.85C243.198 249.95 243.148 250 243.048 250H241.908C241.808 250 241.758 249.95 241.758 249.85V245.185C241.758 244.685 241.613 244.28 241.323 243.97C241.033 243.66 240.648 243.505 240.168 243.505C239.698 243.505 239.313 243.66 239.013 243.97C238.713 244.28 238.563 244.68 238.563 245.17V249.85C238.563 249.95 238.513 250 238.413 250H237.273C237.173 250 237.123 249.95 237.123 249.85V242.515C237.123 242.415 237.173 242.365 237.273 242.365H238.413C238.513 242.365 238.563 242.415 238.563 242.515V243.055C238.563 243.075 238.568 243.09 238.578 243.1C238.598 243.11 238.613 243.105 238.623 243.085C239.053 242.535 239.688 242.26 240.528 242.26ZM249.905 239.65C249.905 239.55 249.955 239.5 250.055 239.5H251.195C251.295 239.5 251.345 239.55 251.345 239.65V249.85C251.345 249.95 251.295 250 251.195 250H250.055C249.955 250 249.905 249.95 249.905 249.85V249.355C249.905 249.335 249.895 249.32 249.875 249.31C249.865 249.3 249.85 249.305 249.83 249.325C249.61 249.575 249.35 249.77 249.05 249.91C248.75 250.05 248.425 250.12 248.075 250.12C247.355 250.12 246.755 249.945 246.275 249.595C245.805 249.235 245.46 248.73 245.24 248.08C245.05 247.55 244.955 246.91 244.955 246.16C244.955 245.46 245.035 244.855 245.195 244.345C245.405 243.685 245.75 243.17 246.23 242.8C246.71 242.43 247.325 242.245 248.075 242.245C248.415 242.245 248.735 242.315 249.035 242.455C249.345 242.585 249.61 242.775 249.83 243.025C249.85 243.045 249.865 243.05 249.875 243.04C249.895 243.03 249.905 243.015 249.905 242.995V239.65ZM249.53 248.065C249.76 247.645 249.875 247.015 249.875 246.175C249.875 245.335 249.75 244.695 249.5 244.255C249.21 243.745 248.785 243.49 248.225 243.49C247.625 243.49 247.18 243.73 246.89 244.21C246.57 244.71 246.41 245.37 246.41 246.19C246.41 246.96 246.535 247.58 246.785 248.05C247.075 248.6 247.55 248.875 248.21 248.875C248.79 248.875 249.23 248.605 249.53 248.065Z" fill="#A3A3A3"/>
<path d="M85.985 243.26C86.745 243.26 87.345 243.49 87.785 243.95C88.225 244.4 88.445 245.03 88.445 245.84V250.85C88.445 250.95 88.395 251 88.295 251H87.17C87.07 251 87.02 250.95 87.02 250.85V246.14C87.02 245.64 86.88 245.245 86.6 244.955C86.33 244.655 85.965 244.505 85.505 244.505C85.045 244.505 84.67 244.65 84.38 244.94C84.09 245.23 83.945 245.62 83.945 246.11V250.85C83.945 250.95 83.895 251 83.795 251H82.67C82.57 251 82.52 250.95 82.52 250.85V246.14C82.52 245.64 82.38 245.245 82.1 244.955C81.83 244.655 81.465 244.505 81.005 244.505C80.545 244.505 80.175 244.65 79.895 244.94C79.625 245.23 79.49 245.62 79.49 246.11V250.85C79.49 250.95 79.44 251 79.34 251H78.2C78.1 251 78.05 250.95 78.05 250.85V243.515C78.05 243.415 78.1 243.365 78.2 243.365H79.34C79.44 243.365 79.49 243.415 79.49 243.515V244.025C79.49 244.045 79.495 244.06 79.505 244.07C79.525 244.08 79.545 244.075 79.565 244.055C80.005 243.525 80.645 243.26 81.485 243.26C81.995 243.26 82.43 243.36 82.79 243.56C83.15 243.75 83.43 244.035 83.63 244.415C83.66 244.455 83.69 244.455 83.72 244.415C83.96 244.025 84.275 243.735 84.665 243.545C85.065 243.355 85.505 243.26 85.985 243.26ZM93.2326 243.245C93.8426 243.245 94.3726 243.355 94.8226 243.575C95.2826 243.785 95.6326 244.085 95.8726 244.475C96.1226 244.855 96.2476 245.29 96.2476 245.78V250.85C96.2476 250.95 96.1976 251 96.0976 251H94.9576C94.8576 251 94.8076 250.95 94.8076 250.85V250.31C94.8076 250.26 94.7826 250.25 94.7326 250.28C94.4726 250.55 94.1526 250.76 93.7726 250.91C93.4026 251.05 92.9876 251.12 92.5276 251.12C91.7876 251.12 91.1726 250.935 90.6826 250.565C90.2026 250.185 89.9626 249.615 89.9626 248.855C89.9626 248.075 90.2326 247.465 90.7726 247.025C91.3226 246.575 92.0876 246.35 93.0676 246.35H94.7476C94.7876 246.35 94.8076 246.33 94.8076 246.29V245.885C94.8076 245.445 94.6776 245.105 94.4176 244.865C94.1676 244.615 93.7826 244.49 93.2626 244.49C92.8426 244.49 92.4976 244.575 92.2276 244.745C91.9676 244.905 91.8076 245.125 91.7476 245.405C91.7176 245.505 91.6576 245.55 91.5676 245.54L90.3526 245.375C90.2526 245.355 90.2076 245.315 90.2176 245.255C90.2976 244.665 90.6126 244.185 91.1626 243.815C91.7126 243.435 92.4026 243.245 93.2326 243.245ZM92.8426 249.905C93.3726 249.905 93.8326 249.765 94.2226 249.485C94.6126 249.205 94.8076 248.85 94.8076 248.42V247.535C94.8076 247.495 94.7876 247.475 94.7476 247.475H93.3376C92.7476 247.475 92.2776 247.59 91.9276 247.82C91.5776 248.05 91.4026 248.37 91.4026 248.78C91.4026 249.15 91.5326 249.43 91.7926 249.62C92.0626 249.81 92.4126 249.905 92.8426 249.905ZM101.537 243.29C101.857 243.29 102.147 243.355 102.407 243.485C102.477 243.515 102.502 243.575 102.482 243.665L102.242 244.79C102.232 244.88 102.172 244.91 102.062 244.88C101.892 244.81 101.692 244.775 101.462 244.775L101.252 244.79C100.782 244.81 100.392 244.975 100.082 245.285C99.7816 245.585 99.6316 245.98 99.6316 246.47V250.85C99.6316 250.95 99.5816 251 99.4816 251H98.3416C98.2416 251 98.1916 250.95 98.1916 250.85V243.515C98.1916 243.415 98.2416 243.365 98.3416 243.365H99.4816C99.5816 243.365 99.6316 243.415 99.6316 243.515V244.31C99.6316 244.34 99.6366 244.36 99.6466 244.37C99.6666 244.37 99.6816 244.36 99.6916 244.34C100.142 243.64 100.757 243.29 101.537 243.29Z" fill="#A3A3A3"/>
<path d="M178.589 241.72C178.309 241.72 178.079 241.63 177.899 241.45C177.719 241.27 177.629 241.04 177.629 240.76C177.629 240.48 177.719 240.25 177.899 240.07C178.079 239.89 178.309 239.8 178.589 239.8C178.879 239.8 179.109 239.89 179.279 240.07C179.459 240.24 179.549 240.47 179.549 240.76C179.549 241.04 179.459 241.27 179.279 241.45C179.099 241.63 178.869 241.72 178.589 241.72ZM176.264 253.66C176.164 253.66 176.114 253.61 176.114 253.51V252.58C176.114 252.48 176.164 252.43 176.264 252.43C176.834 252.43 177.244 252.315 177.494 252.085C177.754 251.855 177.884 251.49 177.884 250.99L177.869 243.07C177.869 242.97 177.919 242.92 178.019 242.92H179.159C179.259 242.92 179.309 242.97 179.309 243.07V250.975C179.309 251.635 179.209 252.16 179.009 252.55C178.809 252.94 178.489 253.225 178.049 253.405C177.609 253.585 177.014 253.67 176.264 253.66ZM187.724 245.785C187.764 246.195 187.779 246.655 187.769 247.165C187.769 247.265 187.719 247.315 187.619 247.315H182.834C182.794 247.315 182.774 247.335 182.774 247.375C182.774 247.715 182.804 247.975 182.864 248.155C182.974 248.555 183.194 248.87 183.524 249.1C183.864 249.32 184.289 249.43 184.799 249.43C185.539 249.43 186.109 249.125 186.509 248.515C186.559 248.415 186.624 248.4 186.704 248.47L187.559 249.04C187.629 249.1 187.644 249.165 187.604 249.235C187.324 249.685 186.924 250.04 186.404 250.3C185.894 250.56 185.314 250.69 184.664 250.69C183.934 250.69 183.319 250.53 182.819 250.21C182.319 249.89 181.944 249.435 181.694 248.845C181.454 248.255 181.334 247.54 181.334 246.7C181.334 245.97 181.389 245.415 181.499 245.035C181.679 244.345 182.039 243.8 182.579 243.4C183.119 243 183.774 242.8 184.544 242.8C185.554 242.8 186.309 243.055 186.809 243.565C187.309 244.065 187.614 244.805 187.724 245.785ZM184.544 244.045C184.114 244.045 183.759 244.155 183.479 244.375C183.199 244.585 183.009 244.87 182.909 245.23C182.839 245.45 182.794 245.73 182.774 246.07C182.774 246.11 182.794 246.13 182.834 246.13H186.269C186.309 246.13 186.329 246.11 186.329 246.07C186.309 245.74 186.279 245.495 186.239 245.335C186.139 244.945 185.939 244.635 185.639 244.405C185.349 244.165 184.984 244.045 184.544 244.045ZM194.131 243.07C194.131 242.97 194.181 242.92 194.281 242.92H195.406C195.506 242.92 195.556 242.97 195.556 243.07V250.405C195.556 250.505 195.506 250.555 195.406 250.555H194.281C194.181 250.555 194.131 250.505 194.131 250.405V249.85C194.131 249.83 194.121 249.82 194.101 249.82C194.091 249.81 194.076 249.815 194.056 249.835C193.656 250.385 193.041 250.66 192.211 250.66C191.721 250.66 191.266 250.565 190.846 250.375C190.436 250.185 190.106 249.905 189.856 249.535C189.606 249.165 189.481 248.715 189.481 248.185V243.07C189.481 242.97 189.531 242.92 189.631 242.92H190.756C190.856 242.92 190.906 242.97 190.906 243.07V247.735C190.906 248.255 191.041 248.665 191.311 248.965C191.591 249.265 191.981 249.415 192.481 249.415C192.981 249.415 193.381 249.265 193.681 248.965C193.981 248.655 194.131 248.245 194.131 247.735V243.07Z" fill="#A3A3A3"/>
<path d="M273.735 251.09C273.135 251.09 272.605 251 272.145 250.82C271.695 250.64 271.345 250.395 271.095 250.085C270.845 249.765 270.72 249.415 270.72 249.035V248.87C270.72 248.77 270.77 248.72 270.87 248.72H271.95C272.05 248.72 272.1 248.77 272.1 248.87V248.945C272.1 249.225 272.25 249.47 272.55 249.68C272.86 249.89 273.25 249.995 273.72 249.995C274.17 249.995 274.535 249.9 274.815 249.71C275.095 249.51 275.235 249.26 275.235 248.96C275.235 248.67 275.105 248.455 274.845 248.315C274.585 248.165 274.165 248.01 273.585 247.85C273.015 247.69 272.535 247.53 272.145 247.37C271.765 247.2 271.44 246.965 271.17 246.665C270.91 246.355 270.78 245.96 270.78 245.48C270.78 244.81 271.04 244.28 271.56 243.89C272.09 243.49 272.79 243.29 273.66 243.29C274.24 243.29 274.75 243.385 275.19 243.575C275.64 243.755 275.985 244.01 276.225 244.34C276.465 244.67 276.585 245.04 276.585 245.45V245.495C276.585 245.595 276.535 245.645 276.435 245.645H275.385C275.285 245.645 275.235 245.595 275.235 245.495V245.45C275.235 245.16 275.09 244.92 274.8 244.73C274.52 244.53 274.135 244.43 273.645 244.43C273.205 244.43 272.845 244.515 272.565 244.685C272.295 244.855 272.16 245.085 272.16 245.375C272.16 245.665 272.29 245.885 272.55 246.035C272.82 246.185 273.25 246.345 273.84 246.515C274.42 246.675 274.9 246.835 275.28 246.995C275.67 247.145 276 247.375 276.27 247.685C276.54 247.985 276.675 248.38 276.675 248.87C276.675 249.55 276.405 250.09 275.865 250.49C275.335 250.89 274.625 251.09 273.735 251.09ZM281.15 243.245C281.76 243.245 282.29 243.355 282.74 243.575C283.2 243.785 283.55 244.085 283.79 244.475C284.04 244.855 284.165 245.29 284.165 245.78V250.85C284.165 250.95 284.115 251 284.015 251H282.875C282.775 251 282.725 250.95 282.725 250.85V250.31C282.725 250.26 282.7 250.25 282.65 250.28C282.39 250.55 282.07 250.76 281.69 250.91C281.32 251.05 280.905 251.12 280.445 251.12C279.705 251.12 279.09 250.935 278.6 250.565C278.12 250.185 277.88 249.615 277.88 248.855C277.88 248.075 278.15 247.465 278.69 247.025C279.24 246.575 280.005 246.35 280.985 246.35H282.665C282.705 246.35 282.725 246.33 282.725 246.29V245.885C282.725 245.445 282.595 245.105 282.335 244.865C282.085 244.615 281.7 244.49 281.18 244.49C280.76 244.49 280.415 244.575 280.145 244.745C279.885 244.905 279.725 245.125 279.665 245.405C279.635 245.505 279.575 245.55 279.485 245.54L278.27 245.375C278.17 245.355 278.125 245.315 278.135 245.255C278.215 244.665 278.53 244.185 279.08 243.815C279.63 243.435 280.32 243.245 281.15 243.245ZM280.76 249.905C281.29 249.905 281.75 249.765 282.14 249.485C282.53 249.205 282.725 248.85 282.725 248.42V247.535C282.725 247.495 282.705 247.475 282.665 247.475H281.255C280.665 247.475 280.195 247.59 279.845 247.82C279.495 248.05 279.32 248.37 279.32 248.78C279.32 249.15 279.45 249.43 279.71 249.62C279.98 249.81 280.33 249.905 280.76 249.905ZM294.044 243.26C294.804 243.26 295.404 243.49 295.844 243.95C296.284 244.4 296.504 245.03 296.504 245.84V250.85C296.504 250.95 296.454 251 296.354 251H295.229C295.129 251 295.079 250.95 295.079 250.85V246.14C295.079 245.64 294.939 245.245 294.659 244.955C294.389 244.655 294.024 244.505 293.564 244.505C293.104 244.505 292.729 244.65 292.439 244.94C292.149 245.23 292.004 245.62 292.004 246.11V250.85C292.004 250.95 291.954 251 291.854 251H290.729C290.629 251 290.579 250.95 290.579 250.85V246.14C290.579 245.64 290.439 245.245 290.159 244.955C289.889 244.655 289.524 244.505 289.064 244.505C288.604 244.505 288.234 244.65 287.954 244.94C287.684 245.23 287.549 245.62 287.549 246.11V250.85C287.549 250.95 287.499 251 287.399 251H286.259C286.159 251 286.109 250.95 286.109 250.85V243.515C286.109 243.415 286.159 243.365 286.259 243.365H287.399C287.499 243.365 287.549 243.415 287.549 243.515V244.025C287.549 244.045 287.554 244.06 287.564 244.07C287.584 244.08 287.604 244.075 287.624 244.055C288.064 243.525 288.704 243.26 289.544 243.26C290.054 243.26 290.489 243.36 290.849 243.56C291.209 243.75 291.489 244.035 291.689 244.415C291.719 244.455 291.749 244.455 291.779 244.415C292.019 244.025 292.334 243.735 292.724 243.545C293.124 243.355 293.564 243.26 294.044 243.26Z" fill="#A3A3A3"/>
<path d="M328.79 240.65C328.79 240.55 328.84 240.5 328.94 240.5H330.08C330.18 240.5 330.23 240.55 330.23 240.65V250.85C330.23 250.95 330.18 251 330.08 251H328.94C328.84 251 328.79 250.95 328.79 250.85V250.355C328.79 250.335 328.78 250.32 328.76 250.31C328.75 250.3 328.735 250.305 328.715 250.325C328.495 250.575 328.235 250.77 327.935 250.91C327.635 251.05 327.31 251.12 326.96 251.12C326.24 251.12 325.64 250.945 325.16 250.595C324.69 250.235 324.345 249.73 324.125 249.08C323.935 248.55 323.84 247.91 323.84 247.16C323.84 246.46 323.92 245.855 324.08 245.345C324.29 244.685 324.635 244.17 325.115 243.8C325.595 243.43 326.21 243.245 326.96 243.245C327.3 243.245 327.62 243.315 327.92 243.455C328.23 243.585 328.495 243.775 328.715 244.025C328.735 244.045 328.75 244.05 328.76 244.04C328.78 244.03 328.79 244.015 328.79 243.995V240.65ZM328.415 249.065C328.645 248.645 328.76 248.015 328.76 247.175C328.76 246.335 328.635 245.695 328.385 245.255C328.095 244.745 327.67 244.49 327.11 244.49C326.51 244.49 326.065 244.73 325.775 245.21C325.455 245.71 325.295 246.37 325.295 247.19C325.295 247.96 325.42 248.58 325.67 249.05C325.96 249.6 326.435 249.875 327.095 249.875C327.675 249.875 328.115 249.605 328.415 249.065ZM333.211 242.165C332.931 242.165 332.701 242.075 332.521 241.895C332.341 241.715 332.251 241.485 332.251 241.205C332.251 240.925 332.341 240.695 332.521 240.515C332.701 240.335 332.931 240.245 333.211 240.245C333.491 240.245 333.721 240.335 333.901 240.515C334.081 240.695 334.171 240.925 334.171 241.205C334.171 241.485 334.081 241.715 333.901 241.895C333.721 242.075 333.491 242.165 333.211 242.165ZM332.611 250.985C332.511 250.985 332.461 250.935 332.461 250.835V243.515C332.461 243.415 332.511 243.365 332.611 243.365H333.751C333.851 243.365 333.901 243.415 333.901 243.515V250.835C333.901 250.935 333.851 250.985 333.751 250.985H332.611ZM344.099 243.26C344.859 243.26 345.459 243.49 345.899 243.95C346.339 244.4 346.559 245.03 346.559 245.84V250.85C346.559 250.95 346.509 251 346.409 251H345.284C345.184 251 345.134 250.95 345.134 250.85V246.14C345.134 245.64 344.994 245.245 344.714 244.955C344.444 244.655 344.079 244.505 343.619 244.505C343.159 244.505 342.784 244.65 342.494 244.94C342.204 245.23 342.059 245.62 342.059 246.11V250.85C342.059 250.95 342.009 251 341.909 251H340.784C340.684 251 340.634 250.95 340.634 250.85V246.14C340.634 245.64 340.494 245.245 340.214 244.955C339.944 244.655 339.579 244.505 339.119 244.505C338.659 244.505 338.289 244.65 338.009 244.94C337.739 245.23 337.604 245.62 337.604 246.11V250.85C337.604 250.95 337.554 251 337.454 251H336.314C336.214 251 336.164 250.95 336.164 250.85V243.515C336.164 243.415 336.214 243.365 336.314 243.365H337.454C337.554 243.365 337.604 243.415 337.604 243.515V244.025C337.604 244.045 337.609 244.06 337.619 244.07C337.639 244.08 337.659 244.075 337.679 244.055C338.119 243.525 338.759 243.26 339.599 243.26C340.109 243.26 340.544 243.36 340.904 243.56C341.264 243.75 341.544 244.035 341.744 244.415C341.774 244.455 341.804 244.455 341.834 244.415C342.074 244.025 342.389 243.735 342.779 243.545C343.179 243.355 343.619 243.26 344.099 243.26Z" fill="#A3A3A3"/>
<rect x="31.8005" y="10.6147" width="309.588" height="0.96496" rx="0.48248" fill="#F3F2F7"/>
<rect x="31.8005" y="60.7925" width="309.588" height="0.96496" rx="0.48248" fill="#F3F2F7"/>
<rect x="31.8005" y="110.005" width="309.588" height="0.96496" rx="0.48248" fill="#F3F2F7"/>
<rect x="31.8005" y="159.218" width="309.588" height="0.96496" rx="0.48248" fill="#F3F2F7"/>
<rect x="31.8005" y="208.431" width="309.588" height="0.96496" rx="0.48248" fill="#F3F2F7"/>
<rect x="31.8005" y="61.7573" width="12.159" height="147.639" fill="#1C2B58"/>
<rect x="81.3721" y="10.6147" width="12.159" height="198.782" fill="#FFB300"/>
<rect x="130.943" y="110.97" width="12.159" height="98.4259" fill="#1C2B58"/>
<rect x="180.515" y="40.5283" width="12.159" height="168.868" fill="#FFB300"/>
<rect x="230.086" y="61.7573" width="12.159" height="147.639" fill="#1C2B58"/>
<rect x="279.658" y="146.674" width="12.159" height="62.7224" fill="#FFB300"/>
<rect x="329.229" y="61.7573" width="12.159" height="147.639" fill="#1C2B58"/>
</svg>
