<svg width="28" height="25" viewBox="0 0 28 25" fill="none" xmlns="http://www.w3.org/2000/svg">
<path d="M4.2 10.7143C5.74438 10.7143 7 9.11272 7 7.14286C7 5.17299 5.74438 3.57143 4.2 3.57143C2.65563 3.57143 1.4 5.17299 1.4 7.14286C1.4 9.11272 2.65563 10.7143 4.2 10.7143ZM23.8 10.7143C25.3444 10.7143 26.6 9.11272 26.6 7.14286C26.6 5.17299 25.3444 3.57143 23.8 3.57143C22.2556 3.57143 21 5.17299 21 7.14286C21 9.11272 22.2556 10.7143 23.8 10.7143ZM25.2 12.5H22.4C21.63 12.5 20.9344 12.8962 20.4269 13.5379C22.19 14.7712 23.4413 16.9978 23.7125 19.6429H26.6C27.3744 19.6429 28 18.8449 28 17.8571V16.0714C28 14.1016 26.7444 12.5 25.2 12.5ZM14 12.5C16.7081 12.5 18.9 9.70424 18.9 6.25C18.9 2.79576 16.7081 0 14 0C11.2919 0 9.1 2.79576 9.1 6.25C9.1 9.70424 11.2919 12.5 14 12.5ZM17.36 14.2857H16.9969C16.0869 14.8437 15.0763 15.1786 14 15.1786C12.9238 15.1786 11.9175 14.8437 11.0031 14.2857H10.64C7.8575 14.2857 5.6 17.1652 5.6 20.7143V22.3214C5.6 23.8002 6.54063 25 7.7 25H20.3C21.4594 25 22.4 23.8002 22.4 22.3214V20.7143C22.4 17.1652 20.1425 14.2857 17.36 14.2857ZM7.57313 13.5379C7.06563 12.8962 6.37 12.5 5.6 12.5H2.8C1.25563 12.5 0 14.1016 0 16.0714V17.8571C0 18.8449 0.625625 19.6429 1.4 19.6429H4.28313C4.55875 16.9978 5.81 14.7712 7.57313 13.5379Z" fill="#1C2B58"/>
</svg>
