<svg width="25" height="24" viewBox="0 0 25 24" fill="none" xmlns="http://www.w3.org/2000/svg">
<path opacity="0.1" d="M13.7235 0.24946C12.9587 0.0831529 12.1939 0 11.3866 0C5.0985 0 0 4.98921 0 11.1426C0 14.0114 1.10468 16.6307 2.93164 18.5848L13.7235 14.2608V0.24946V0.24946Z" fill="#0C1E5B"/>
<path d="M13.6133 23.3657C19.902 23.3657 25 18.377 25 12.2231C25 6.06927 19.902 1.08057 13.6133 1.08057C7.32466 1.08057 2.22668 6.06927 2.22668 12.2231C2.22668 18.377 7.32466 23.3657 13.6133 23.3657Z" fill="#34C759"/>
<path d="M12.6795 17.0022C12.3396 17.0022 12.0422 16.8775 11.7873 16.628L8.17584 13.094C7.66599 12.5951 7.66599 11.8051 8.17584 11.3478C8.68569 10.8488 9.49296 10.8488 9.96032 11.3478L12.6795 14.0087L17.778 9.01945C18.2879 8.52053 19.0951 8.52053 19.5625 9.01945C20.0723 9.51838 20.0723 10.3083 19.5625 10.7657L13.5718 16.628C13.3168 16.8775 13.0194 17.0022 12.6795 17.0022Z" fill="white"/>
</svg>
