<svg width="720" height="1024" viewBox="0 0 720 1024" fill="none" xmlns="http://www.w3.org/2000/svg">
<rect width="720" height="1024" fill="#E09351"/>
<circle cx="360" cy="512" r="303" fill="url(#paint0_radial_150_1297)" fill-opacity="0.2"/>
<circle cx="360" cy="512" r="303" fill="url(#paint1_linear_150_1297)" fill-opacity="0.2"/>
<circle cx="360" cy="511" r="264" fill="url(#paint2_radial_150_1297)" fill-opacity="0.2"/>
<circle cx="360" cy="511" r="264" fill="url(#paint3_linear_150_1297)" fill-opacity="0.2"/>
<path d="M268.236 884L274.476 870H277.676L283.936 884H280.536L275.416 871.64H276.696L271.556 884H268.236ZM271.356 881L272.216 878.54H279.416L280.296 881H271.356ZM283.066 884L287.886 877.68L287.826 879.4L283.206 873.24H286.706L289.626 877.26L288.306 877.3L291.326 873.24H294.646L290.006 879.34V877.66L294.806 884H291.266L288.206 879.72L289.506 879.9L286.466 884H283.066ZM302.726 884V881.9L302.526 881.44V877.68C302.526 877.013 302.319 876.493 301.906 876.12C301.506 875.747 300.886 875.56 300.046 875.56C299.472 875.56 298.906 875.653 298.346 875.84C297.799 876.013 297.332 876.253 296.946 876.56L295.826 874.38C296.412 873.967 297.119 873.647 297.946 873.42C298.772 873.193 299.612 873.08 300.466 873.08C302.106 873.08 303.379 873.467 304.286 874.24C305.192 875.013 305.646 876.22 305.646 877.86V884H302.726ZM299.446 884.16C298.606 884.16 297.886 884.02 297.286 883.74C296.686 883.447 296.226 883.053 295.906 882.56C295.586 882.067 295.426 881.513 295.426 880.9C295.426 880.26 295.579 879.7 295.886 879.22C296.206 878.74 296.706 878.367 297.386 878.1C298.066 877.82 298.952 877.68 300.046 877.68H302.906V879.5H300.386C299.652 879.5 299.146 879.62 298.866 879.86C298.599 880.1 298.466 880.4 298.466 880.76C298.466 881.16 298.619 881.48 298.926 881.72C299.246 881.947 299.679 882.06 300.226 882.06C300.746 882.06 301.212 881.94 301.626 881.7C302.039 881.447 302.339 881.08 302.526 880.6L303.006 882.04C302.779 882.733 302.366 883.26 301.766 883.62C301.166 883.98 300.392 884.16 299.446 884.16ZM322.249 873.08C323.103 873.08 323.856 873.253 324.509 873.6C325.176 873.933 325.696 874.453 326.069 875.16C326.456 875.853 326.649 876.747 326.649 877.84V884H323.529V878.32C323.529 877.453 323.349 876.813 322.989 876.4C322.629 875.987 322.123 875.78 321.469 875.78C321.016 875.78 320.609 875.887 320.249 876.1C319.889 876.3 319.609 876.607 319.409 877.02C319.209 877.433 319.109 877.96 319.109 878.6V884H315.989V878.32C315.989 877.453 315.809 876.813 315.449 876.4C315.103 875.987 314.603 875.78 313.949 875.78C313.496 875.78 313.089 875.887 312.729 876.1C312.369 876.3 312.089 876.607 311.889 877.02C311.689 877.433 311.589 877.96 311.589 878.6V884H308.469V873.24H311.449V876.18L310.889 875.32C311.263 874.587 311.789 874.033 312.469 873.66C313.163 873.273 313.949 873.08 314.829 873.08C315.816 873.08 316.676 873.333 317.409 873.84C318.156 874.333 318.649 875.093 318.889 876.12L317.789 875.82C318.149 874.98 318.723 874.313 319.509 873.82C320.309 873.327 321.223 873.08 322.249 873.08ZM335.33 884V870H341.39C342.643 870 343.723 870.207 344.63 870.62C345.537 871.02 346.237 871.6 346.73 872.36C347.223 873.12 347.47 874.027 347.47 875.08C347.47 876.12 347.223 877.02 346.73 877.78C346.237 878.54 345.537 879.127 344.63 879.54C343.723 879.94 342.643 880.14 341.39 880.14H337.13L338.57 878.68V884H335.33ZM338.57 879.04L337.13 877.5H341.21C342.21 877.5 342.957 877.287 343.45 876.86C343.943 876.433 344.19 875.84 344.19 875.08C344.19 874.307 343.943 873.707 343.45 873.28C342.957 872.853 342.21 872.64 341.21 872.64H337.13L338.57 871.1V879.04ZM349.758 884V869.16H352.878V884H349.758ZM362.374 884V881.9L362.174 881.44V877.68C362.174 877.013 361.967 876.493 361.554 876.12C361.154 875.747 360.534 875.56 359.694 875.56C359.121 875.56 358.554 875.653 357.994 875.84C357.447 876.013 356.981 876.253 356.594 876.56L355.474 874.38C356.061 873.967 356.767 873.647 357.594 873.42C358.421 873.193 359.261 873.08 360.114 873.08C361.754 873.08 363.027 873.467 363.934 874.24C364.841 875.013 365.294 876.22 365.294 877.86V884H362.374ZM359.094 884.16C358.254 884.16 357.534 884.02 356.934 883.74C356.334 883.447 355.874 883.053 355.554 882.56C355.234 882.067 355.074 881.513 355.074 880.9C355.074 880.26 355.227 879.7 355.534 879.22C355.854 878.74 356.354 878.367 357.034 878.1C357.714 877.82 358.601 877.68 359.694 877.68H362.554V879.5H360.034C359.301 879.5 358.794 879.62 358.514 879.86C358.247 880.1 358.114 880.4 358.114 880.76C358.114 881.16 358.267 881.48 358.574 881.72C358.894 881.947 359.327 882.06 359.874 882.06C360.394 882.06 360.861 881.94 361.274 881.7C361.687 881.447 361.987 881.08 362.174 880.6L362.654 882.04C362.427 882.733 362.014 883.26 361.414 883.62C360.814 883.98 360.041 884.16 359.094 884.16ZM372.518 884.16C371.251 884.16 370.264 883.84 369.558 883.2C368.851 882.547 368.498 881.58 368.498 880.3V870.86H371.618V880.26C371.618 880.713 371.738 881.067 371.978 881.32C372.218 881.56 372.544 881.68 372.958 881.68C373.451 881.68 373.871 881.547 374.218 881.28L375.058 883.48C374.738 883.707 374.351 883.88 373.898 884C373.458 884.107 372.998 884.16 372.518 884.16ZM366.838 875.88V873.48H374.298V875.88H366.838ZM381.817 884.16C380.59 884.16 379.51 883.92 378.577 883.44C377.657 882.96 376.944 882.307 376.437 881.48C375.93 880.64 375.677 879.687 375.677 878.62C375.677 877.54 375.924 876.587 376.417 875.76C376.924 874.92 377.61 874.267 378.477 873.8C379.344 873.32 380.324 873.08 381.417 873.08C382.47 873.08 383.417 873.307 384.257 873.76C385.11 874.2 385.784 874.84 386.277 875.68C386.77 876.507 387.017 877.5 387.017 878.66C387.017 878.78 387.01 878.92 386.997 879.08C386.984 879.227 386.97 879.367 386.957 879.5H378.217V877.68H385.317L384.117 878.22C384.117 877.66 384.004 877.173 383.777 876.76C383.55 876.347 383.237 876.027 382.837 875.8C382.437 875.56 381.97 875.44 381.437 875.44C380.904 875.44 380.43 875.56 380.017 875.8C379.617 876.027 379.304 876.353 379.077 876.78C378.85 877.193 378.737 877.687 378.737 878.26V878.74C378.737 879.327 378.864 879.847 379.117 880.3C379.384 880.74 379.75 881.08 380.217 881.32C380.697 881.547 381.257 881.66 381.897 881.66C382.47 881.66 382.97 881.573 383.397 881.4C383.837 881.227 384.237 880.967 384.597 880.62L386.257 882.42C385.764 882.98 385.144 883.413 384.397 883.72C383.65 884.013 382.79 884.16 381.817 884.16ZM389.474 884V873C389.474 871.787 389.834 870.82 390.554 870.1C391.274 869.367 392.301 869 393.634 869C394.088 869 394.521 869.047 394.934 869.14C395.361 869.233 395.721 869.38 396.014 869.58L395.194 871.84C395.021 871.72 394.828 871.627 394.614 871.56C394.401 871.493 394.174 871.46 393.934 871.46C393.481 871.46 393.128 871.593 392.874 871.86C392.634 872.113 392.514 872.5 392.514 873.02V874.02L392.594 875.36V884H389.474ZM387.814 875.88V873.48H395.274V875.88H387.814ZM401.812 884.16C400.665 884.16 399.645 883.92 398.752 883.44C397.872 882.96 397.172 882.307 396.652 881.48C396.145 880.64 395.892 879.687 395.892 878.62C395.892 877.54 396.145 876.587 396.652 875.76C397.172 874.92 397.872 874.267 398.752 873.8C399.645 873.32 400.665 873.08 401.812 873.08C402.945 873.08 403.959 873.32 404.852 873.8C405.745 874.267 406.445 874.913 406.952 875.74C407.459 876.567 407.712 877.527 407.712 878.62C407.712 879.687 407.459 880.64 406.952 881.48C406.445 882.307 405.745 882.96 404.852 883.44C403.959 883.92 402.945 884.16 401.812 884.16ZM401.812 881.6C402.332 881.6 402.799 881.48 403.212 881.24C403.625 881 403.952 880.66 404.192 880.22C404.432 879.767 404.552 879.233 404.552 878.62C404.552 877.993 404.432 877.46 404.192 877.02C403.952 876.58 403.625 876.24 403.212 876C402.799 875.76 402.332 875.64 401.812 875.64C401.292 875.64 400.825 875.76 400.412 876C399.999 876.24 399.665 876.58 399.412 877.02C399.172 877.46 399.052 877.993 399.052 878.62C399.052 879.233 399.172 879.767 399.412 880.22C399.665 880.66 399.999 881 400.412 881.24C400.825 881.48 401.292 881.6 401.812 881.6ZM409.797 884V873.24H412.777V876.28L412.357 875.4C412.677 874.64 413.191 874.067 413.897 873.68C414.604 873.28 415.464 873.08 416.477 873.08V875.96C416.344 875.947 416.224 875.94 416.117 875.94C416.011 875.927 415.897 875.92 415.777 875.92C414.924 875.92 414.231 876.167 413.697 876.66C413.177 877.14 412.917 877.893 412.917 878.92V884H409.797ZM432.132 873.08C432.985 873.08 433.739 873.253 434.392 873.6C435.059 873.933 435.579 874.453 435.952 875.16C436.339 875.853 436.532 876.747 436.532 877.84V884H433.412V878.32C433.412 877.453 433.232 876.813 432.872 876.4C432.512 875.987 432.005 875.78 431.352 875.78C430.899 875.78 430.492 875.887 430.132 876.1C429.772 876.3 429.492 876.607 429.292 877.02C429.092 877.433 428.992 877.96 428.992 878.6V884H425.872V878.32C425.872 877.453 425.692 876.813 425.332 876.4C424.985 875.987 424.485 875.78 423.832 875.78C423.379 875.78 422.972 875.887 422.612 876.1C422.252 876.3 421.972 876.607 421.772 877.02C421.572 877.433 421.472 877.96 421.472 878.6V884H418.352V873.24H421.332V876.18L420.772 875.32C421.145 874.587 421.672 874.033 422.352 873.66C423.045 873.273 423.832 873.08 424.712 873.08C425.699 873.08 426.559 873.333 427.292 873.84C428.039 874.333 428.532 875.093 428.772 876.12L427.672 875.82C428.032 874.98 428.605 874.313 429.392 873.82C430.192 873.327 431.105 873.08 432.132 873.08ZM444.747 884.16C443.52 884.16 442.44 883.92 441.507 883.44C440.587 882.96 439.873 882.307 439.367 881.48C438.86 880.64 438.607 879.687 438.607 878.62C438.607 877.54 438.853 876.587 439.347 875.76C439.853 874.92 440.54 874.267 441.407 873.8C442.273 873.32 443.253 873.08 444.347 873.08C445.4 873.08 446.347 873.307 447.187 873.76C448.04 874.2 448.713 874.84 449.207 875.68C449.7 876.507 449.947 877.5 449.947 878.66C449.947 878.78 449.94 878.92 449.927 879.08C449.913 879.227 449.9 879.367 449.887 879.5H441.147V877.68H448.247L447.047 878.22C447.047 877.66 446.933 877.173 446.707 876.76C446.48 876.347 446.167 876.027 445.767 875.8C445.367 875.56 444.9 875.44 444.367 875.44C443.833 875.44 443.36 875.56 442.947 875.8C442.547 876.027 442.233 876.353 442.007 876.78C441.78 877.193 441.667 877.687 441.667 878.26V878.74C441.667 879.327 441.793 879.847 442.047 880.3C442.313 880.74 442.68 881.08 443.147 881.32C443.627 881.547 444.187 881.66 444.827 881.66C445.4 881.66 445.9 881.573 446.327 881.4C446.767 881.227 447.167 880.967 447.527 880.62L449.187 882.42C448.693 882.98 448.073 883.413 447.327 883.72C446.58 884.013 445.72 884.16 444.747 884.16Z" fill="#E0EAFF"/>
<path d="M177.289 908V896.8H182.009C183.204 896.8 184.255 897.035 185.161 897.504C186.079 897.973 186.788 898.629 187.289 899.472C187.801 900.315 188.057 901.291 188.057 902.4C188.057 903.509 187.801 904.485 187.289 905.328C186.788 906.171 186.079 906.827 185.161 907.296C184.255 907.765 183.204 908 182.009 908H177.289ZM178.889 906.608H181.913C182.841 906.608 183.641 906.432 184.313 906.08C184.996 905.728 185.524 905.237 185.897 904.608C186.271 903.968 186.457 903.232 186.457 902.4C186.457 901.557 186.271 900.821 185.897 900.192C185.524 899.563 184.996 899.072 184.313 898.72C183.641 898.368 182.841 898.192 181.913 898.192H178.889V906.608ZM195.548 908V906.208L195.468 905.872V902.816C195.468 902.165 195.276 901.664 194.892 901.312C194.519 900.949 193.953 900.768 193.196 900.768C192.695 900.768 192.204 900.853 191.724 901.024C191.244 901.184 190.839 901.403 190.508 901.68L189.868 900.528C190.305 900.176 190.828 899.909 191.436 899.728C192.055 899.536 192.7 899.44 193.372 899.44C194.535 899.44 195.431 899.723 196.06 900.288C196.689 900.853 197.004 901.717 197.004 902.88V908H195.548ZM192.764 908.096C192.135 908.096 191.58 907.989 191.1 907.776C190.631 907.563 190.268 907.269 190.012 906.896C189.756 906.512 189.628 906.08 189.628 905.6C189.628 905.141 189.735 904.725 189.948 904.352C190.172 903.979 190.529 903.68 191.02 903.456C191.521 903.232 192.193 903.12 193.036 903.12H195.724V904.224H193.1C192.332 904.224 191.815 904.352 191.548 904.608C191.281 904.864 191.148 905.173 191.148 905.536C191.148 905.952 191.313 906.288 191.644 906.544C191.975 906.789 192.433 906.912 193.02 906.912C193.596 906.912 194.097 906.784 194.524 906.528C194.961 906.272 195.276 905.899 195.468 905.408L195.772 906.464C195.569 906.965 195.212 907.365 194.7 907.664C194.188 907.952 193.543 908.096 192.764 908.096ZM202.279 908.096C201.575 908.096 200.903 908 200.263 907.808C199.633 907.616 199.137 907.381 198.775 907.104L199.415 905.888C199.777 906.133 200.225 906.341 200.759 906.512C201.292 906.683 201.836 906.768 202.391 906.768C203.105 906.768 203.617 906.667 203.927 906.464C204.247 906.261 204.407 905.979 204.407 905.616C204.407 905.349 204.311 905.141 204.119 904.992C203.927 904.843 203.671 904.731 203.351 904.656C203.041 904.581 202.695 904.517 202.311 904.464C201.927 904.4 201.543 904.325 201.159 904.24C200.775 904.144 200.423 904.016 200.103 903.856C199.783 903.685 199.527 903.456 199.335 903.168C199.143 902.869 199.047 902.475 199.047 901.984C199.047 901.472 199.191 901.024 199.479 900.64C199.767 900.256 200.172 899.963 200.695 899.76C201.228 899.547 201.857 899.44 202.583 899.44C203.137 899.44 203.697 899.509 204.263 899.648C204.839 899.776 205.308 899.963 205.671 900.208L205.015 901.424C204.631 901.168 204.231 900.992 203.815 900.896C203.399 900.8 202.983 900.752 202.567 900.752C201.895 900.752 201.393 900.864 201.063 901.088C200.732 901.301 200.567 901.579 200.567 901.92C200.567 902.208 200.663 902.432 200.855 902.592C201.057 902.741 201.313 902.859 201.623 902.944C201.943 903.029 202.295 903.104 202.679 903.168C203.063 903.221 203.447 903.296 203.831 903.392C204.215 903.477 204.561 903.6 204.871 903.76C205.191 903.92 205.447 904.144 205.639 904.432C205.841 904.72 205.943 905.104 205.943 905.584C205.943 906.096 205.793 906.539 205.495 906.912C205.196 907.285 204.775 907.579 204.231 907.792C203.687 907.995 203.036 908.096 202.279 908.096ZM212.39 899.44C213.084 899.44 213.692 899.573 214.214 899.84C214.748 900.107 215.164 900.512 215.462 901.056C215.761 901.6 215.91 902.288 215.91 903.12V908H214.374V903.296C214.374 902.475 214.172 901.856 213.766 901.44C213.372 901.024 212.812 900.816 212.086 900.816C211.542 900.816 211.068 900.923 210.662 901.136C210.257 901.349 209.942 901.664 209.718 902.08C209.505 902.496 209.398 903.013 209.398 903.632V908H207.862V896.128H209.398V901.808L209.094 901.2C209.372 900.645 209.798 900.213 210.374 899.904C210.95 899.595 211.622 899.44 212.39 899.44ZM223.249 908.096C222.524 908.096 221.868 907.936 221.281 907.616C220.705 907.285 220.246 906.8 219.905 906.16C219.574 905.52 219.409 904.72 219.409 903.76C219.409 902.8 219.58 902 219.921 901.36C220.273 900.72 220.737 900.24 221.313 899.92C221.9 899.6 222.545 899.44 223.249 899.44C224.081 899.44 224.817 899.621 225.457 899.984C226.097 900.347 226.604 900.853 226.977 901.504C227.35 902.144 227.537 902.896 227.537 903.76C227.537 904.624 227.35 905.381 226.977 906.032C226.604 906.683 226.097 907.189 225.457 907.552C224.817 907.915 224.081 908.096 223.249 908.096ZM218.753 908V896.128H220.289V901.776L220.129 903.744L220.225 905.712V908H218.753ZM223.121 906.752C223.665 906.752 224.15 906.629 224.577 906.384C225.014 906.139 225.356 905.792 225.601 905.344C225.857 904.885 225.985 904.357 225.985 903.76C225.985 903.152 225.857 902.629 225.601 902.192C225.356 901.744 225.014 901.397 224.577 901.152C224.15 900.907 223.665 900.784 223.121 900.784C222.588 900.784 222.102 900.907 221.665 901.152C221.238 901.397 220.897 901.744 220.641 902.192C220.396 902.629 220.273 903.152 220.273 903.76C220.273 904.357 220.396 904.885 220.641 905.344C220.897 905.792 221.238 906.139 221.665 906.384C222.102 906.629 222.588 906.752 223.121 906.752ZM233.291 908.096C232.438 908.096 231.68 907.909 231.019 907.536C230.358 907.163 229.835 906.651 229.451 906C229.067 905.339 228.875 904.592 228.875 903.76C228.875 902.917 229.067 902.171 229.451 901.52C229.835 900.869 230.358 900.363 231.019 900C231.68 899.627 232.438 899.44 233.291 899.44C234.134 899.44 234.886 899.627 235.547 900C236.219 900.363 236.742 900.869 237.115 901.52C237.499 902.16 237.691 902.907 237.691 903.76C237.691 904.603 237.499 905.349 237.115 906C236.742 906.651 236.219 907.163 235.547 907.536C234.886 907.909 234.134 908.096 233.291 908.096ZM233.291 906.752C233.835 906.752 234.32 906.629 234.747 906.384C235.184 906.139 235.526 905.792 235.771 905.344C236.016 904.885 236.139 904.357 236.139 903.76C236.139 903.152 236.016 902.629 235.771 902.192C235.526 901.744 235.184 901.397 234.747 901.152C234.32 900.907 233.835 900.784 233.291 900.784C232.747 900.784 232.262 900.907 231.835 901.152C231.408 901.397 231.067 901.744 230.811 902.192C230.555 902.629 230.427 903.152 230.427 903.76C230.427 904.357 230.555 904.885 230.811 905.344C231.067 905.792 231.408 906.139 231.835 906.384C232.262 906.629 232.747 906.752 233.291 906.752ZM245.001 908V906.208L244.921 905.872V902.816C244.921 902.165 244.729 901.664 244.345 901.312C243.972 900.949 243.407 900.768 242.649 900.768C242.148 900.768 241.657 900.853 241.177 901.024C240.697 901.184 240.292 901.403 239.961 901.68L239.321 900.528C239.759 900.176 240.281 899.909 240.889 899.728C241.508 899.536 242.153 899.44 242.825 899.44C243.988 899.44 244.884 899.723 245.513 900.288C246.143 900.853 246.457 901.717 246.457 902.88V908H245.001ZM242.217 908.096C241.588 908.096 241.033 907.989 240.553 907.776C240.084 907.563 239.721 907.269 239.465 906.896C239.209 906.512 239.081 906.08 239.081 905.6C239.081 905.141 239.188 904.725 239.401 904.352C239.625 903.979 239.983 903.68 240.473 903.456C240.975 903.232 241.647 903.12 242.489 903.12H245.177V904.224H242.553C241.785 904.224 241.268 904.352 241.001 904.608C240.735 904.864 240.601 905.173 240.601 905.536C240.601 905.952 240.767 906.288 241.097 906.544C241.428 906.789 241.887 906.912 242.473 906.912C243.049 906.912 243.551 906.784 243.977 906.528C244.415 906.272 244.729 905.899 244.921 905.408L245.225 906.464C245.023 906.965 244.665 907.365 244.153 907.664C243.641 907.952 242.996 908.096 242.217 908.096ZM249.3 908V899.52H250.772V901.824L250.628 901.248C250.862 900.661 251.257 900.213 251.812 899.904C252.366 899.595 253.049 899.44 253.86 899.44V900.928C253.796 900.917 253.732 900.912 253.668 900.912C253.614 900.912 253.561 900.912 253.508 900.912C252.686 900.912 252.036 901.157 251.556 901.648C251.076 902.139 250.836 902.848 250.836 903.776V908H249.3ZM259.179 908.096C258.357 908.096 257.621 907.915 256.971 907.552C256.331 907.189 255.824 906.683 255.451 906.032C255.077 905.381 254.891 904.624 254.891 903.76C254.891 902.896 255.077 902.144 255.451 901.504C255.824 900.853 256.331 900.347 256.971 899.984C257.621 899.621 258.357 899.44 259.179 899.44C259.893 899.44 260.539 899.6 261.115 899.92C261.691 900.24 262.149 900.72 262.491 901.36C262.843 902 263.019 902.8 263.019 903.76C263.019 904.72 262.848 905.52 262.507 906.16C262.176 906.8 261.723 907.285 261.147 907.616C260.571 907.936 259.915 908.096 259.179 908.096ZM259.307 906.752C259.84 906.752 260.32 906.629 260.747 906.384C261.184 906.139 261.525 905.792 261.771 905.344C262.027 904.885 262.155 904.357 262.155 903.76C262.155 903.152 262.027 902.629 261.771 902.192C261.525 901.744 261.184 901.397 260.747 901.152C260.32 900.907 259.84 900.784 259.307 900.784C258.763 900.784 258.277 900.907 257.851 901.152C257.424 901.397 257.083 901.744 256.827 902.192C256.571 902.629 256.443 903.152 256.443 903.76C256.443 904.357 256.571 904.885 256.827 905.344C257.083 905.792 257.424 906.139 257.851 906.384C258.277 906.629 258.763 906.752 259.307 906.752ZM262.203 908V905.712L262.299 903.744L262.139 901.776V896.128H263.675V908H262.203ZM276.142 908V906.208L276.062 905.872V902.816C276.062 902.165 275.87 901.664 275.486 901.312C275.113 900.949 274.547 900.768 273.79 900.768C273.289 900.768 272.798 900.853 272.318 901.024C271.838 901.184 271.433 901.403 271.102 901.68L270.462 900.528C270.899 900.176 271.422 899.909 272.03 899.728C272.649 899.536 273.294 899.44 273.966 899.44C275.129 899.44 276.025 899.723 276.654 900.288C277.283 900.853 277.598 901.717 277.598 902.88V908H276.142ZM273.358 908.096C272.729 908.096 272.174 907.989 271.694 907.776C271.225 907.563 270.862 907.269 270.606 906.896C270.35 906.512 270.222 906.08 270.222 905.6C270.222 905.141 270.329 904.725 270.542 904.352C270.766 903.979 271.123 903.68 271.614 903.456C272.115 903.232 272.787 903.12 273.63 903.12H276.318V904.224H273.694C272.926 904.224 272.409 904.352 272.142 904.608C271.875 904.864 271.742 905.173 271.742 905.536C271.742 905.952 271.907 906.288 272.238 906.544C272.569 906.789 273.027 906.912 273.614 906.912C274.19 906.912 274.691 906.784 275.118 906.528C275.555 906.272 275.87 905.899 276.062 905.408L276.366 906.464C276.163 906.965 275.806 907.365 275.294 907.664C274.782 907.952 274.137 908.096 273.358 908.096ZM283.944 908.096C283.123 908.096 282.387 907.915 281.736 907.552C281.096 907.189 280.59 906.683 280.216 906.032C279.843 905.381 279.656 904.624 279.656 903.76C279.656 902.896 279.843 902.144 280.216 901.504C280.59 900.853 281.096 900.347 281.736 899.984C282.387 899.621 283.123 899.44 283.944 899.44C284.659 899.44 285.304 899.6 285.88 899.92C286.456 900.24 286.915 900.72 287.256 901.36C287.608 902 287.784 902.8 287.784 903.76C287.784 904.72 287.614 905.52 287.272 906.16C286.942 906.8 286.488 907.285 285.912 907.616C285.336 907.936 284.68 908.096 283.944 908.096ZM284.072 906.752C284.606 906.752 285.086 906.629 285.512 906.384C285.95 906.139 286.291 905.792 286.536 905.344C286.792 904.885 286.92 904.357 286.92 903.76C286.92 903.152 286.792 902.629 286.536 902.192C286.291 901.744 285.95 901.397 285.512 901.152C285.086 900.907 284.606 900.784 284.072 900.784C283.528 900.784 283.043 900.907 282.616 901.152C282.19 901.397 281.848 901.744 281.592 902.192C281.336 902.629 281.208 903.152 281.208 903.76C281.208 904.357 281.336 904.885 281.592 905.344C281.848 905.792 282.19 906.139 282.616 906.384C283.043 906.629 283.528 906.752 284.072 906.752ZM286.968 908V905.712L287.064 903.744L286.904 901.776V896.128H288.44V908H286.968ZM301.955 899.44C302.637 899.44 303.24 899.573 303.763 899.84C304.285 900.107 304.691 900.512 304.979 901.056C305.277 901.6 305.427 902.288 305.427 903.12V908H303.891V903.296C303.891 902.475 303.699 901.856 303.315 901.44C302.931 901.024 302.392 900.816 301.699 900.816C301.187 900.816 300.739 900.923 300.355 901.136C299.971 901.349 299.672 901.664 299.459 902.08C299.256 902.496 299.155 903.013 299.155 903.632V908H297.619V903.296C297.619 902.475 297.427 901.856 297.043 901.44C296.669 901.024 296.131 900.816 295.427 900.816C294.925 900.816 294.483 900.923 294.099 901.136C293.715 901.349 293.416 901.664 293.203 902.08C292.989 902.496 292.883 903.013 292.883 903.632V908H291.347V899.52H292.819V901.776L292.579 901.2C292.845 900.645 293.256 900.213 293.811 899.904C294.365 899.595 295.011 899.44 295.747 899.44C296.557 899.44 297.256 899.643 297.843 900.048C298.429 900.443 298.813 901.045 298.995 901.856L298.371 901.6C298.627 900.949 299.075 900.427 299.715 900.032C300.355 899.637 301.101 899.44 301.955 899.44ZM308.253 908V899.52H309.789V908H308.253ZM309.021 897.888C308.722 897.888 308.472 897.792 308.269 897.6C308.077 897.408 307.981 897.173 307.981 896.896C307.981 896.608 308.077 896.368 308.269 896.176C308.472 895.984 308.722 895.888 309.021 895.888C309.32 895.888 309.565 895.984 309.757 896.176C309.96 896.357 310.061 896.587 310.061 896.864C310.061 897.152 309.965 897.397 309.773 897.6C309.581 897.792 309.33 897.888 309.021 897.888ZM317.25 899.44C317.943 899.44 318.551 899.573 319.074 899.84C319.607 900.107 320.023 900.512 320.322 901.056C320.62 901.6 320.77 902.288 320.77 903.12V908H319.234V903.296C319.234 902.475 319.031 901.856 318.626 901.44C318.231 901.024 317.671 900.816 316.946 900.816C316.402 900.816 315.927 900.923 315.522 901.136C315.116 901.349 314.802 901.664 314.578 902.08C314.364 902.496 314.258 903.013 314.258 903.632V908H312.722V899.52H314.194V901.808L313.954 901.2C314.231 900.645 314.658 900.213 315.234 899.904C315.81 899.595 316.482 899.44 317.25 899.44ZM332.405 908.096C331.701 908.096 331.056 907.936 330.469 907.616C329.893 907.285 329.429 906.8 329.077 906.16C328.736 905.52 328.565 904.72 328.565 903.76C328.565 902.8 328.73 902 329.061 901.36C329.402 900.72 329.861 900.24 330.437 899.92C331.024 899.6 331.68 899.44 332.405 899.44C333.237 899.44 333.973 899.621 334.613 899.984C335.253 900.347 335.76 900.853 336.133 901.504C336.506 902.144 336.693 902.896 336.693 903.76C336.693 904.624 336.506 905.381 336.133 906.032C335.76 906.683 335.253 907.189 334.613 907.552C333.973 907.915 333.237 908.096 332.405 908.096ZM327.909 911.104V899.52H329.381V901.808L329.285 903.776L329.445 905.744V911.104H327.909ZM332.277 906.752C332.821 906.752 333.306 906.629 333.733 906.384C334.17 906.139 334.512 905.792 334.757 905.344C335.013 904.885 335.141 904.357 335.141 903.76C335.141 903.152 335.013 902.629 334.757 902.192C334.512 901.744 334.17 901.397 333.733 901.152C333.306 900.907 332.821 900.784 332.277 900.784C331.744 900.784 331.258 900.907 330.821 901.152C330.394 901.397 330.053 901.744 329.797 902.192C329.552 902.629 329.429 903.152 329.429 903.76C329.429 904.357 329.552 904.885 329.797 905.344C330.053 905.792 330.394 906.139 330.821 906.384C331.258 906.629 331.744 906.752 332.277 906.752ZM342.447 908.096C341.594 908.096 340.837 907.909 340.175 907.536C339.514 907.163 338.991 906.651 338.607 906C338.223 905.339 338.031 904.592 338.031 903.76C338.031 902.917 338.223 902.171 338.607 901.52C338.991 900.869 339.514 900.363 340.175 900C340.837 899.627 341.594 899.44 342.447 899.44C343.29 899.44 344.042 899.627 344.703 900C345.375 900.363 345.898 900.869 346.271 901.52C346.655 902.16 346.847 902.907 346.847 903.76C346.847 904.603 346.655 905.349 346.271 906C345.898 906.651 345.375 907.163 344.703 907.536C344.042 907.909 343.29 908.096 342.447 908.096ZM342.447 906.752C342.991 906.752 343.477 906.629 343.903 906.384C344.341 906.139 344.682 905.792 344.927 905.344C345.173 904.885 345.295 904.357 345.295 903.76C345.295 903.152 345.173 902.629 344.927 902.192C344.682 901.744 344.341 901.397 343.903 901.152C343.477 900.907 342.991 900.784 342.447 900.784C341.903 900.784 341.418 900.907 340.991 901.152C340.565 901.397 340.223 901.744 339.967 902.192C339.711 902.629 339.583 903.152 339.583 903.76C339.583 904.357 339.711 904.885 339.967 905.344C340.223 905.792 340.565 906.139 340.991 906.384C341.418 906.629 341.903 906.752 342.447 906.752ZM352.54 908.096C351.814 908.096 351.174 907.963 350.62 907.696C350.076 907.429 349.649 907.024 349.34 906.48C349.041 905.925 348.892 905.232 348.892 904.4V899.52H350.428V904.224C350.428 905.056 350.625 905.68 351.02 906.096C351.425 906.512 351.99 906.72 352.716 906.72C353.249 906.72 353.713 906.613 354.108 906.4C354.502 906.176 354.806 905.856 355.02 905.44C355.233 905.013 355.34 904.501 355.34 903.904V899.52H356.876V908H355.42V905.712L355.66 906.32C355.382 906.885 354.966 907.323 354.412 907.632C353.857 907.941 353.233 908.096 352.54 908.096ZM359.8 908V899.52H361.272V901.824L361.128 901.248C361.362 900.661 361.757 900.213 362.312 899.904C362.866 899.595 363.549 899.44 364.36 899.44V900.928C364.296 900.917 364.232 900.912 364.168 900.912C364.114 900.912 364.061 900.912 364.008 900.912C363.186 900.912 362.536 901.157 362.056 901.648C361.576 902.139 361.336 902.848 361.336 903.776V908H359.8ZM370.659 908V896.128H372.195V908H370.659ZM380.392 908V906.208L380.312 905.872V902.816C380.312 902.165 380.12 901.664 379.736 901.312C379.363 900.949 378.797 900.768 378.04 900.768C377.539 900.768 377.048 900.853 376.568 901.024C376.088 901.184 375.683 901.403 375.352 901.68L374.712 900.528C375.149 900.176 375.672 899.909 376.28 899.728C376.899 899.536 377.544 899.44 378.216 899.44C379.379 899.44 380.275 899.723 380.904 900.288C381.533 900.853 381.848 901.717 381.848 902.88V908H380.392ZM377.608 908.096C376.979 908.096 376.424 907.989 375.944 907.776C375.475 907.563 375.112 907.269 374.856 906.896C374.6 906.512 374.472 906.08 374.472 905.6C374.472 905.141 374.579 904.725 374.792 904.352C375.016 903.979 375.373 903.68 375.864 903.456C376.365 903.232 377.037 903.12 377.88 903.12H380.568V904.224H377.944C377.176 904.224 376.659 904.352 376.392 904.608C376.125 904.864 375.992 905.173 375.992 905.536C375.992 905.952 376.157 906.288 376.488 906.544C376.819 906.789 377.277 906.912 377.864 906.912C378.44 906.912 378.941 906.784 379.368 906.528C379.805 906.272 380.12 905.899 380.312 905.408L380.616 906.464C380.413 906.965 380.056 907.365 379.544 907.664C379.032 907.952 378.387 908.096 377.608 908.096ZM392.699 911.2C391.921 911.2 391.163 911.088 390.427 910.864C389.702 910.651 389.11 910.341 388.651 909.936L389.387 908.752C389.782 909.093 390.267 909.36 390.843 909.552C391.419 909.755 392.022 909.856 392.651 909.856C393.654 909.856 394.39 909.621 394.859 909.152C395.329 908.683 395.563 907.968 395.563 907.008V905.216L395.723 903.536L395.643 901.84V899.52H397.099V906.848C397.099 908.341 396.726 909.44 395.979 910.144C395.233 910.848 394.139 911.2 392.699 911.2ZM392.507 907.648C391.686 907.648 390.95 907.477 390.299 907.136C389.659 906.784 389.147 906.299 388.763 905.68C388.39 905.061 388.203 904.347 388.203 903.536C388.203 902.715 388.39 902 388.763 901.392C389.147 900.773 389.659 900.293 390.299 899.952C390.95 899.611 391.686 899.44 392.507 899.44C393.233 899.44 393.894 899.589 394.491 899.888C395.089 900.176 395.563 900.624 395.915 901.232C396.278 901.84 396.459 902.608 396.459 903.536C396.459 904.453 396.278 905.216 395.915 905.824C395.563 906.432 395.089 906.891 394.491 907.2C393.894 907.499 393.233 907.648 392.507 907.648ZM392.683 906.304C393.249 906.304 393.75 906.187 394.187 905.952C394.625 905.717 394.966 905.392 395.211 904.976C395.467 904.56 395.595 904.08 395.595 903.536C395.595 902.992 395.467 902.512 395.211 902.096C394.966 901.68 394.625 901.36 394.187 901.136C393.75 900.901 393.249 900.784 392.683 900.784C392.118 900.784 391.611 900.901 391.163 901.136C390.726 901.36 390.379 901.68 390.123 902.096C389.878 902.512 389.755 902.992 389.755 903.536C389.755 904.08 389.878 904.56 390.123 904.976C390.379 905.392 390.726 905.717 391.163 905.952C391.611 906.187 392.118 906.304 392.683 906.304ZM403.81 908.096C402.903 908.096 402.103 907.909 401.41 907.536C400.727 907.163 400.194 906.651 399.81 906C399.437 905.349 399.25 904.603 399.25 903.76C399.25 902.917 399.431 902.171 399.794 901.52C400.167 900.869 400.674 900.363 401.314 900C401.965 899.627 402.695 899.44 403.506 899.44C404.327 899.44 405.053 899.621 405.682 899.984C406.311 900.347 406.802 900.859 407.154 901.52C407.517 902.171 407.698 902.933 407.698 903.808C407.698 903.872 407.693 903.947 407.682 904.032C407.682 904.117 407.677 904.197 407.666 904.272H400.45V903.168H406.866L406.242 903.552C406.253 903.008 406.141 902.523 405.906 902.096C405.671 901.669 405.346 901.339 404.93 901.104C404.525 900.859 404.05 900.736 403.506 900.736C402.973 900.736 402.498 900.859 402.082 901.104C401.666 901.339 401.341 901.675 401.106 902.112C400.871 902.539 400.754 903.029 400.754 903.584V903.84C400.754 904.405 400.882 904.912 401.138 905.36C401.405 905.797 401.773 906.139 402.242 906.384C402.711 906.629 403.25 906.752 403.858 906.752C404.359 906.752 404.813 906.667 405.218 906.496C405.634 906.325 405.997 906.069 406.306 905.728L407.154 906.72C406.77 907.168 406.29 907.509 405.714 907.744C405.149 907.979 404.514 908.096 403.81 908.096ZM412.263 908.096C411.559 908.096 410.887 908 410.247 907.808C409.618 907.616 409.122 907.381 408.759 907.104L409.399 905.888C409.762 906.133 410.21 906.341 410.743 906.512C411.276 906.683 411.82 906.768 412.375 906.768C413.09 906.768 413.602 906.667 413.911 906.464C414.231 906.261 414.391 905.979 414.391 905.616C414.391 905.349 414.295 905.141 414.103 904.992C413.911 904.843 413.655 904.731 413.335 904.656C413.026 904.581 412.679 904.517 412.295 904.464C411.911 904.4 411.527 904.325 411.143 904.24C410.759 904.144 410.407 904.016 410.087 903.856C409.767 903.685 409.511 903.456 409.319 903.168C409.127 902.869 409.031 902.475 409.031 901.984C409.031 901.472 409.175 901.024 409.463 900.64C409.751 900.256 410.156 899.963 410.679 899.76C411.212 899.547 411.842 899.44 412.567 899.44C413.122 899.44 413.682 899.509 414.247 899.648C414.823 899.776 415.292 899.963 415.655 900.208L414.999 901.424C414.615 901.168 414.215 900.992 413.799 900.896C413.383 900.8 412.967 900.752 412.551 900.752C411.879 900.752 411.378 900.864 411.047 901.088C410.716 901.301 410.551 901.579 410.551 901.92C410.551 902.208 410.647 902.432 410.839 902.592C411.042 902.741 411.298 902.859 411.607 902.944C411.927 903.029 412.279 903.104 412.663 903.168C413.047 903.221 413.431 903.296 413.815 903.392C414.199 903.477 414.546 903.6 414.855 903.76C415.175 903.92 415.431 904.144 415.623 904.432C415.826 904.72 415.927 905.104 415.927 905.584C415.927 906.096 415.778 906.539 415.479 906.912C415.18 907.285 414.759 907.579 414.215 907.792C413.671 907.995 413.02 908.096 412.263 908.096ZM420.759 908.096C419.905 908.096 419.244 907.867 418.775 907.408C418.305 906.949 418.071 906.293 418.071 905.44V897.664H419.607V905.376C419.607 905.835 419.719 906.187 419.943 906.432C420.177 906.677 420.508 906.8 420.935 906.8C421.415 906.8 421.815 906.667 422.135 906.4L422.615 907.504C422.38 907.707 422.097 907.856 421.767 907.952C421.447 908.048 421.111 908.096 420.759 908.096ZM416.631 900.784V899.52H422.039V900.784H416.631ZM424.472 908V899.52H426.008V908H424.472ZM425.24 897.888C424.941 897.888 424.69 897.792 424.488 897.6C424.296 897.408 424.2 897.173 424.2 896.896C424.2 896.608 424.296 896.368 424.488 896.176C424.69 895.984 424.941 895.888 425.24 895.888C425.538 895.888 425.784 895.984 425.976 896.176C426.178 896.357 426.28 896.587 426.28 896.864C426.28 897.152 426.184 897.397 425.992 897.6C425.8 897.792 425.549 897.888 425.24 897.888ZM432.572 908.096C431.719 908.096 430.962 907.909 430.3 907.536C429.639 907.163 429.116 906.651 428.732 906C428.348 905.339 428.156 904.592 428.156 903.76C428.156 902.917 428.348 902.171 428.732 901.52C429.116 900.869 429.639 900.363 430.3 900C430.962 899.627 431.719 899.44 432.572 899.44C433.415 899.44 434.167 899.627 434.828 900C435.5 900.363 436.023 900.869 436.396 901.52C436.78 902.16 436.972 902.907 436.972 903.76C436.972 904.603 436.78 905.349 436.396 906C436.023 906.651 435.5 907.163 434.828 907.536C434.167 907.909 433.415 908.096 432.572 908.096ZM432.572 906.752C433.116 906.752 433.602 906.629 434.028 906.384C434.466 906.139 434.807 905.792 435.052 905.344C435.298 904.885 435.42 904.357 435.42 903.76C435.42 903.152 435.298 902.629 435.052 902.192C434.807 901.744 434.466 901.397 434.028 901.152C433.602 900.907 433.116 900.784 432.572 900.784C432.028 900.784 431.543 900.907 431.116 901.152C430.69 901.397 430.348 901.744 430.092 902.192C429.836 902.629 429.708 903.152 429.708 903.76C429.708 904.357 429.836 904.885 430.092 905.344C430.348 905.792 430.69 906.139 431.116 906.384C431.543 906.629 432.028 906.752 432.572 906.752ZM443.625 899.44C444.318 899.44 444.926 899.573 445.449 899.84C445.982 900.107 446.398 900.512 446.697 901.056C446.995 901.6 447.145 902.288 447.145 903.12V908H445.609V903.296C445.609 902.475 445.406 901.856 445.001 901.44C444.606 901.024 444.046 900.816 443.321 900.816C442.777 900.816 442.302 900.923 441.897 901.136C441.491 901.349 441.177 901.664 440.953 902.08C440.739 902.496 440.633 903.013 440.633 903.632V908H439.097V899.52H440.569V901.808L440.329 901.2C440.606 900.645 441.033 900.213 441.609 899.904C442.185 899.595 442.857 899.44 443.625 899.44ZM457.788 908.096C456.967 908.096 456.231 907.915 455.58 907.552C454.94 907.189 454.433 906.683 454.06 906.032C453.687 905.381 453.5 904.624 453.5 903.76C453.5 902.896 453.687 902.144 454.06 901.504C454.433 900.853 454.94 900.347 455.58 899.984C456.231 899.621 456.967 899.44 457.788 899.44C458.503 899.44 459.148 899.6 459.724 899.92C460.3 900.24 460.759 900.72 461.1 901.36C461.452 902 461.628 902.8 461.628 903.76C461.628 904.72 461.457 905.52 461.116 906.16C460.785 906.8 460.332 907.285 459.756 907.616C459.18 907.936 458.524 908.096 457.788 908.096ZM457.916 906.752C458.449 906.752 458.929 906.629 459.356 906.384C459.793 906.139 460.135 905.792 460.38 905.344C460.636 904.885 460.764 904.357 460.764 903.76C460.764 903.152 460.636 902.629 460.38 902.192C460.135 901.744 459.793 901.397 459.356 901.152C458.929 900.907 458.449 900.784 457.916 900.784C457.372 900.784 456.887 900.907 456.46 901.152C456.033 901.397 455.692 901.744 455.436 902.192C455.18 902.629 455.052 903.152 455.052 903.76C455.052 904.357 455.18 904.885 455.436 905.344C455.692 905.792 456.033 906.139 456.46 906.384C456.887 906.629 457.372 906.752 457.916 906.752ZM460.812 908V905.712L460.908 903.744L460.748 901.776V896.128H462.284V908H460.812ZM468.966 908.096C468.06 908.096 467.26 907.909 466.566 907.536C465.884 907.163 465.35 906.651 464.966 906C464.593 905.349 464.406 904.603 464.406 903.76C464.406 902.917 464.588 902.171 464.95 901.52C465.324 900.869 465.83 900.363 466.47 900C467.121 899.627 467.852 899.44 468.662 899.44C469.484 899.44 470.209 899.621 470.838 899.984C471.468 900.347 471.958 900.859 472.31 901.52C472.673 902.171 472.854 902.933 472.854 903.808C472.854 903.872 472.849 903.947 472.838 904.032C472.838 904.117 472.833 904.197 472.822 904.272H465.606V903.168H472.022L471.398 903.552C471.409 903.008 471.297 902.523 471.062 902.096C470.828 901.669 470.502 901.339 470.086 901.104C469.681 900.859 469.206 900.736 468.662 900.736C468.129 900.736 467.654 900.859 467.238 901.104C466.822 901.339 466.497 901.675 466.262 902.112C466.028 902.539 465.91 903.029 465.91 903.584V903.84C465.91 904.405 466.038 904.912 466.294 905.36C466.561 905.797 466.929 906.139 467.398 906.384C467.868 906.629 468.406 906.752 469.014 906.752C469.516 906.752 469.969 906.667 470.374 906.496C470.79 906.325 471.153 906.069 471.462 905.728L472.31 906.72C471.926 907.168 471.446 907.509 470.87 907.744C470.305 907.979 469.67 908.096 468.966 908.096ZM477.419 908.096C476.715 908.096 476.043 908 475.403 907.808C474.774 907.616 474.278 907.381 473.915 907.104L474.555 905.888C474.918 906.133 475.366 906.341 475.899 906.512C476.433 906.683 476.977 906.768 477.531 906.768C478.246 906.768 478.758 906.667 479.067 906.464C479.387 906.261 479.547 905.979 479.547 905.616C479.547 905.349 479.451 905.141 479.259 904.992C479.067 904.843 478.811 904.731 478.491 904.656C478.182 904.581 477.835 904.517 477.451 904.464C477.067 904.4 476.683 904.325 476.299 904.24C475.915 904.144 475.563 904.016 475.243 903.856C474.923 903.685 474.667 903.456 474.475 903.168C474.283 902.869 474.187 902.475 474.187 901.984C474.187 901.472 474.331 901.024 474.619 900.64C474.907 900.256 475.313 899.963 475.835 899.76C476.369 899.547 476.998 899.44 477.723 899.44C478.278 899.44 478.838 899.509 479.403 899.648C479.979 899.776 480.449 899.963 480.811 900.208L480.155 901.424C479.771 901.168 479.371 900.992 478.955 900.896C478.539 900.8 478.123 900.752 477.707 900.752C477.035 900.752 476.534 900.864 476.203 901.088C475.873 901.301 475.707 901.579 475.707 901.92C475.707 902.208 475.803 902.432 475.995 902.592C476.198 902.741 476.454 902.859 476.763 902.944C477.083 903.029 477.435 903.104 477.819 903.168C478.203 903.221 478.587 903.296 478.971 903.392C479.355 903.477 479.702 903.6 480.011 903.76C480.331 903.92 480.587 904.144 480.779 904.432C480.982 904.72 481.083 905.104 481.083 905.584C481.083 906.096 480.934 906.539 480.635 906.912C480.337 907.285 479.915 907.579 479.371 907.792C478.827 907.995 478.177 908.096 477.419 908.096ZM490.212 908.096C489.358 908.096 488.697 907.867 488.228 907.408C487.758 906.949 487.524 906.293 487.524 905.44V897.664H489.06V905.376C489.06 905.835 489.172 906.187 489.396 906.432C489.63 906.677 489.961 906.8 490.388 906.8C490.868 906.8 491.268 906.667 491.588 906.4L492.068 907.504C491.833 907.707 491.55 907.856 491.22 907.952C490.9 908.048 490.564 908.096 490.212 908.096ZM486.084 900.784V899.52H491.492V900.784H486.084ZM499.189 908V906.208L499.109 905.872V902.816C499.109 902.165 498.917 901.664 498.533 901.312C498.159 900.949 497.594 900.768 496.837 900.768C496.335 900.768 495.845 900.853 495.365 901.024C494.885 901.184 494.479 901.403 494.149 901.68L493.509 900.528C493.946 900.176 494.469 899.909 495.077 899.728C495.695 899.536 496.341 899.44 497.013 899.44C498.175 899.44 499.071 899.723 499.701 900.288C500.33 900.853 500.645 901.717 500.645 902.88V908H499.189ZM496.405 908.096C495.775 908.096 495.221 907.989 494.741 907.776C494.271 907.563 493.909 907.269 493.653 906.896C493.397 906.512 493.269 906.08 493.269 905.6C493.269 905.141 493.375 904.725 493.589 904.352C493.813 903.979 494.17 903.68 494.661 903.456C495.162 903.232 495.834 903.12 496.677 903.12H499.365V904.224H496.741C495.973 904.224 495.455 904.352 495.189 904.608C494.922 904.864 494.789 905.173 494.789 905.536C494.789 905.952 494.954 906.288 495.285 906.544C495.615 906.789 496.074 906.912 496.661 906.912C497.237 906.912 497.738 906.784 498.165 906.528C498.602 906.272 498.917 905.899 499.109 905.408L499.413 906.464C499.21 906.965 498.853 907.365 498.341 907.664C497.829 907.952 497.183 908.096 496.405 908.096ZM494.261 898.288L496.389 896.208H497.861L499.989 898.288H498.597L496.485 896.528H497.765L495.653 898.288H494.261ZM507.183 908.096C506.319 908.096 505.546 907.909 504.863 907.536C504.191 907.163 503.663 906.651 503.279 906C502.895 905.349 502.703 904.603 502.703 903.76C502.703 902.917 502.895 902.171 503.279 901.52C503.663 900.869 504.191 900.363 504.863 900C505.546 899.627 506.319 899.44 507.183 899.44C507.951 899.44 508.634 899.595 509.231 899.904C509.839 900.203 510.309 900.651 510.639 901.248L509.471 902C509.194 901.584 508.853 901.28 508.447 901.088C508.053 900.885 507.626 900.784 507.167 900.784C506.613 900.784 506.117 900.907 505.679 901.152C505.242 901.397 504.895 901.744 504.639 902.192C504.383 902.629 504.255 903.152 504.255 903.76C504.255 904.368 504.383 904.896 504.639 905.344C504.895 905.792 505.242 906.139 505.679 906.384C506.117 906.629 506.613 906.752 507.167 906.752C507.626 906.752 508.053 906.656 508.447 906.464C508.853 906.261 509.194 905.952 509.471 905.536L510.639 906.272C510.309 906.859 509.839 907.312 509.231 907.632C508.634 907.941 507.951 908.096 507.183 908.096ZM517.047 899.44C517.74 899.44 518.348 899.573 518.871 899.84C519.404 900.107 519.82 900.512 520.119 901.056C520.417 901.6 520.567 902.288 520.567 903.12V908H519.031V903.296C519.031 902.475 518.828 901.856 518.423 901.44C518.028 901.024 517.468 900.816 516.743 900.816C516.199 900.816 515.724 900.923 515.319 901.136C514.913 901.349 514.599 901.664 514.375 902.08C514.161 902.496 514.055 903.013 514.055 903.632V908H512.519V896.128H514.055V901.808L513.751 901.2C514.028 900.645 514.455 900.213 515.031 899.904C515.607 899.595 516.279 899.44 517.047 899.44ZM527.185 908.096C526.278 908.096 525.478 907.909 524.785 907.536C524.102 907.163 523.569 906.651 523.185 906C522.812 905.349 522.625 904.603 522.625 903.76C522.625 902.917 522.806 902.171 523.169 901.52C523.542 900.869 524.049 900.363 524.689 900C525.34 899.627 526.07 899.44 526.881 899.44C527.702 899.44 528.428 899.621 529.057 899.984C529.686 900.347 530.177 900.859 530.529 901.52C530.892 902.171 531.073 902.933 531.073 903.808C531.073 903.872 531.068 903.947 531.057 904.032C531.057 904.117 531.052 904.197 531.041 904.272H523.825V903.168H530.241L529.617 903.552C529.628 903.008 529.516 902.523 529.281 902.096C529.046 901.669 528.721 901.339 528.305 901.104C527.9 900.859 527.425 900.736 526.881 900.736C526.348 900.736 525.873 900.859 525.457 901.104C525.041 901.339 524.716 901.675 524.481 902.112C524.246 902.539 524.129 903.029 524.129 903.584V903.84C524.129 904.405 524.257 904.912 524.513 905.36C524.78 905.797 525.148 906.139 525.617 906.384C526.086 906.629 526.625 906.752 527.233 906.752C527.734 906.752 528.188 906.667 528.593 906.496C529.009 906.325 529.372 906.069 529.681 905.728L530.529 906.72C530.145 907.168 529.665 907.509 529.089 907.744C528.524 907.979 527.889 908.096 527.185 908.096ZM535.638 908.096C534.934 908.096 534.262 908 533.622 907.808C532.993 907.616 532.497 907.381 532.134 907.104L532.774 905.888C533.137 906.133 533.585 906.341 534.118 906.512C534.651 906.683 535.195 906.768 535.75 906.768C536.465 906.768 536.977 906.667 537.286 906.464C537.606 906.261 537.766 905.979 537.766 905.616C537.766 905.349 537.67 905.141 537.478 904.992C537.286 904.843 537.03 904.731 536.71 904.656C536.401 904.581 536.054 904.517 535.67 904.464C535.286 904.4 534.902 904.325 534.518 904.24C534.134 904.144 533.782 904.016 533.462 903.856C533.142 903.685 532.886 903.456 532.694 903.168C532.502 902.869 532.406 902.475 532.406 901.984C532.406 901.472 532.55 901.024 532.838 900.64C533.126 900.256 533.531 899.963 534.054 899.76C534.587 899.547 535.217 899.44 535.942 899.44C536.497 899.44 537.057 899.509 537.622 899.648C538.198 899.776 538.667 899.963 539.03 900.208L538.374 901.424C537.99 901.168 537.59 900.992 537.174 900.896C536.758 900.8 536.342 900.752 535.926 900.752C535.254 900.752 534.753 900.864 534.422 901.088C534.091 901.301 533.926 901.579 533.926 901.92C533.926 902.208 534.022 902.432 534.214 902.592C534.417 902.741 534.673 902.859 534.982 902.944C535.302 903.029 535.654 903.104 536.038 903.168C536.422 903.221 536.806 903.296 537.19 903.392C537.574 903.477 537.921 903.6 538.23 903.76C538.55 903.92 538.806 904.144 538.998 904.432C539.201 904.72 539.302 905.104 539.302 905.584C539.302 906.096 539.153 906.539 538.854 906.912C538.555 907.285 538.134 907.579 537.59 907.792C537.046 907.995 536.395 908.096 535.638 908.096ZM541.59 908.096C541.291 908.096 541.035 907.995 540.822 907.792C540.608 907.579 540.502 907.312 540.502 906.992C540.502 906.672 540.608 906.411 540.822 906.208C541.035 906.005 541.291 905.904 541.59 905.904C541.878 905.904 542.123 906.005 542.326 906.208C542.539 906.411 542.646 906.672 542.646 906.992C542.646 907.312 542.539 907.579 542.326 907.792C542.123 907.995 541.878 908.096 541.59 908.096Z" fill="#E0EAFF" fill-opacity="0.75"/>
<rect x="339.5" y="926" width="16" height="8" rx="4" fill="#E0EAFF"/>
<rect x="359.5" y="926" width="8" height="8" rx="4" fill="#E0EAFF" fill-opacity="0.5"/>
<rect x="371.5" y="926" width="8" height="8" rx="4" fill="#E0EAFF" fill-opacity="0.5"/>
<path d="M605.186 447.079C599.035 371.247 595.96 333.331 581.645 308.8C540.66 238.56 421.498 221.854 346.238 228.26C245.483 236.834 130.221 294.755 79.4838 406.585C33.4015 508.158 54.6503 623.132 124.086 698.343C251.374 836.217 513.939 811.601 578.079 721.131C603.676 685.025 605.521 627.357 608.233 542.644C609.536 501.865 606.992 469.369 605.186 447.079Z" fill="#F4F7FA"/>
<path d="M556.904 273.394C550.391 268.004 540.509 265.069 532.156 264.476C472.947 260.281 464.305 384.044 473.381 411.703C482.457 439.362 476.576 448.444 429.944 462.915C383.311 477.386 405.683 505.248 411.366 521.542C417.05 537.836 428.306 551.601 394.311 567.791C360.317 583.981 372.131 594.013 372.131 594.013C372.131 594.013 434.821 658.139 431.358 637.609C427.895 617.078 434.17 586.078 490.377 583.721C514.588 582.706 551.661 571.158 559.87 545.235C561.782 539.198 563.112 529.978 561.658 523.73C559.641 515.063 553.953 508.234 550.794 500.076C543.434 481.066 561.896 467.145 572.52 454.438C578.068 447.805 583.612 441.003 587.858 433.439C596.678 417.736 593.375 400.896 583.772 386.421C579.166 379.481 572.768 372.117 570.758 363.837C568.601 354.944 570.482 342.793 570.994 333.644C571.396 326.469 572.08 319.322 571.676 312.128C570.929 298.751 567.795 282.404 556.904 273.394Z" fill="url(#paint4_linear_150_1297)"/>
<g opacity="0.8">
<g opacity="0.8">
<path opacity="0.8" d="M367.201 630.004C366.795 630.15 366.334 629.977 366.129 629.585C365.906 629.157 366.07 628.627 366.499 628.404C366.763 628.266 393.155 614.384 422.596 591.519C449.726 570.451 485.068 537.232 499.376 498.614C511.328 466.361 522.227 413.04 529.281 352.326C535.606 297.883 536.604 257.618 533.917 250.144C533.752 249.69 533.99 249.188 534.445 249.024C534.899 248.859 535.401 249.097 535.565 249.552C538.709 258.296 536.714 303.528 531.022 352.529C523.954 413.377 513.019 466.844 501.021 499.223C486.564 538.237 450.966 571.712 423.648 592.922C394.085 615.876 367.576 629.817 367.313 629.955C367.274 629.973 367.237 629.989 367.201 630.004Z" fill="white"/>
</g>
<g opacity="0.8">
<path opacity="0.8" d="M529.185 362.88C528.732 363.043 528.272 362.917 528.105 362.464C527.886 361.865 505.813 302.481 477.35 289.074C476.912 288.869 476.735 288.374 476.94 287.935C477.147 287.497 477.673 287.324 478.109 287.529C507.224 301.243 528.838 359.381 529.745 361.855C529.912 362.31 529.644 362.716 529.189 362.878C529.187 362.88 529.185 362.88 529.185 362.88Z" fill="white"/>
</g>
<g opacity="0.8">
<path opacity="0.8" d="M518.42 431.748C518.083 431.87 517.689 431.774 517.448 431.48C517.141 431.106 517.194 430.554 517.567 430.248C517.73 430.114 533.981 416.784 554.032 405.597C581.125 390.482 601.888 386.262 615.744 393.056C616.179 393.269 616.357 393.793 616.144 394.228C615.931 394.662 615.407 394.841 614.973 394.627C583.092 378.997 519.319 431.07 518.68 431.598C518.6 431.665 518.511 431.715 518.42 431.748Z" fill="white"/>
</g>
<g opacity="0.8">
<path opacity="0.8" d="M447.668 572.514C447.579 572.547 447.485 572.563 447.386 572.565C446.903 572.573 446.505 572.187 446.497 571.702C446.493 571.448 446.042 545.969 440.71 519.122C435.82 494.508 425.723 463.676 405.392 456.572C404.935 456.411 404.693 455.912 404.854 455.457C405.012 455 405.513 454.759 405.968 454.919C422.922 460.842 435.188 482.337 442.431 518.806C447.792 545.805 448.242 571.42 448.247 571.676C448.255 572.061 448.011 572.39 447.668 572.514Z" fill="white"/>
</g>
<g opacity="0.8">
<path opacity="0.8" d="M483.847 531.349C483.492 531.477 483.082 531.364 482.846 531.045C482.558 530.655 482.641 530.107 483.029 529.821C485.848 527.736 552.355 478.843 578.291 483.511C578.768 483.597 579.083 484.053 578.997 484.528C578.912 485.005 578.458 485.322 577.98 485.235C552.78 480.698 484.754 530.722 484.07 531.228C484.001 531.283 483.924 531.321 483.847 531.349Z" fill="white"/>
</g>
</g>
<path d="M608.871 455.684C604.565 448.409 596.259 442.303 588.6 438.919C534.301 414.936 484.293 528.475 483.473 557.573C482.653 586.672 474.046 593.228 425.27 591.066C376.492 588.905 388.115 622.694 387.951 639.95C387.786 657.206 393.72 673.967 356.252 677.7C318.785 681.433 326.506 694.868 326.506 694.868C326.506 694.868 363.801 776.425 367.49 755.933C371.178 735.441 387.571 708.393 441.26 725.197C464.384 732.433 503.179 734.112 519.676 712.496C523.518 707.462 527.889 699.237 528.634 692.865C529.667 684.027 526.626 675.676 526.413 666.931C525.918 646.551 548.003 639.698 562.299 631.337C569.763 626.973 577.282 622.446 583.838 616.767C597.451 604.975 600.043 588.011 595.904 571.141C593.919 563.052 590.389 553.956 591.3 545.485C592.278 536.388 598.161 525.589 601.738 517.152C604.543 510.537 607.606 504.041 609.66 497.136C613.487 484.289 616.071 467.847 608.871 455.684Z" fill="url(#paint5_linear_150_1297)"/>
<g opacity="0.8">
<g opacity="0.8">
<path opacity="0.8" d="M309.688 727.065C309.258 727.065 308.882 726.747 308.822 726.308C308.757 725.829 309.091 725.387 309.571 725.322C309.865 725.281 339.398 721.148 374.839 709.594C407.496 698.95 451.995 679.647 478.527 648.15C500.688 621.843 528.986 575.356 556.166 520.611C580.539 471.52 595.103 433.967 595.103 426.024C595.103 425.541 595.495 425.149 595.978 425.149C596.461 425.149 596.853 425.541 596.853 426.024C596.853 435.317 579.67 477.206 557.733 521.39C530.492 576.256 502.111 622.87 479.865 649.278C453.061 681.099 408.235 700.553 375.351 711.269C339.765 722.866 310.102 727.015 309.806 727.055C309.769 727.063 309.729 727.065 309.688 727.065Z" fill="white"/>
</g>
<g opacity="0.8">
<path opacity="0.8" d="M552.507 530.692C552.026 530.692 551.634 530.327 551.632 529.845C551.628 529.208 550.952 465.813 528.705 443.566C528.362 443.224 528.362 442.674 528.705 442.333C529.046 441.992 529.6 441.994 529.943 442.335C552.7 465.092 553.366 527.199 553.384 529.833C553.388 530.316 552.998 530.692 552.513 530.692C552.509 530.692 552.507 530.692 552.507 530.692Z" fill="white"/>
</g>
<g opacity="0.8">
<path opacity="0.8" d="M519.074 591.675C518.715 591.675 518.378 591.451 518.25 591.094C518.088 590.639 518.323 590.138 518.78 589.973C518.977 589.902 538.78 582.857 561.436 579.116C592.044 574.059 613.011 577.116 623.753 588.197C624.09 588.544 624.08 589.099 623.733 589.436C623.386 589.773 622.832 589.762 622.495 589.415C597.783 563.92 520.152 591.342 519.371 591.622C519.271 591.658 519.172 591.675 519.074 591.675Z" fill="white"/>
</g>
<g opacity="0.8">
<path opacity="0.8" d="M404.864 700.197C404.77 700.197 404.675 700.18 404.58 700.15C404.123 699.994 403.877 699.496 404.036 699.037C404.117 698.796 412.316 674.669 416.381 647.6C420.108 622.783 421.04 590.354 404.312 576.788C403.936 576.484 403.879 575.931 404.184 575.556C404.488 575.18 405.04 575.122 405.416 575.428C419.365 586.739 423.636 611.117 418.109 647.883C414.019 675.103 405.775 699.36 405.692 699.604C405.568 699.967 405.227 700.197 404.864 700.197Z" fill="white"/>
</g>
<g opacity="0.8">
<path opacity="0.8" d="M452.835 673.702C452.458 673.702 452.111 673.457 451.997 673.079C451.857 672.616 452.121 672.127 452.584 671.989C455.941 670.982 535.07 647.476 557.896 660.646C558.314 660.888 558.458 661.424 558.217 661.842C557.975 662.26 557.439 662.404 557.021 662.162C534.84 649.366 453.901 673.422 453.087 673.666C453.004 673.69 452.919 673.702 452.835 673.702Z" fill="white"/>
</g>
</g>
<path d="M426.854 251.146L426.229 255.624C424.152 255.719 422.11 255.987 420.123 256.434L418.43 252.256C417.969 251.117 416.664 250.575 415.517 251.048L408.338 254.006C407.189 254.479 406.629 255.79 407.087 256.931L408.788 261.161C407.049 262.27 405.404 263.524 403.874 264.913L400.269 262.115C399.295 261.36 397.882 261.547 397.112 262.534L392.289 268.704C391.516 269.693 391.68 271.11 392.655 271.867L396.274 274.68C395.31 276.491 394.5 278.403 393.846 280.398L389.253 279.796C388.019 279.633 386.87 280.508 386.687 281.75L385.532 289.533C385.347 290.779 386.2 291.924 387.436 292.087L392.044 292.691C392.099 294.792 392.328 296.859 392.736 298.87L388.412 300.673C387.247 301.158 386.675 302.5 387.134 303.667L390.014 310.987C390.475 312.16 391.796 312.714 392.965 312.225L397.291 310.414C398.379 312.184 399.619 313.853 400.996 315.404L398.113 319.147C397.334 320.16 397.5 321.609 398.487 322.384L404.666 327.232C405.654 328.007 407.089 327.812 407.867 326.795L410.715 323.077C412.533 324.045 414.458 324.851 416.465 325.494L415.818 330.135C415.641 331.405 416.508 332.568 417.754 332.731L425.555 333.754C426.803 333.918 427.954 333.019 428.129 331.748L428.758 327.143C430.879 327.051 432.964 326.777 434.992 326.32L436.703 330.575C437.178 331.756 438.508 332.315 439.673 331.821L446.948 328.738C448.111 328.245 448.665 326.891 448.188 325.713L446.477 321.489C448.253 320.342 449.926 319.041 451.477 317.602L455.033 320.367C456.028 321.14 457.453 320.945 458.216 319.932L462.98 313.615C463.741 312.607 463.552 311.167 462.56 310.398L459.036 307.666C459.996 305.804 460.794 303.837 461.427 301.789L465.832 302.368C467.068 302.53 468.201 301.647 468.361 300.397L469.362 292.594C469.522 291.35 468.651 290.209 467.417 290.046L463.025 289.47C462.933 287.343 462.665 285.256 462.215 283.228L466.289 281.523C467.434 281.044 467.975 279.72 467.5 278.568L464.525 271.374C464.05 270.225 462.738 269.681 461.594 270.158L457.495 271.867C456.379 270.115 455.116 268.463 453.714 266.934L456.421 263.4C457.175 262.416 456.99 261.009 456.011 260.256L449.891 255.553C448.913 254.802 447.51 254.986 446.755 255.967L444.031 259.505C442.224 258.567 440.316 257.788 438.325 257.171L438.932 252.727C439.098 251.505 438.244 250.383 437.02 250.222L429.373 249.22C428.155 249.063 427.025 249.922 426.854 251.146ZM399.895 287.418C402.106 272.039 416.22 261.259 431.434 263.254C446.648 265.249 457.333 279.284 455.289 294.683C453.232 310.177 439.088 321.169 423.708 319.153C408.327 317.135 397.673 302.89 399.895 287.418Z" fill="#D8DEE8"/>
<path d="M309.604 248.718L308.638 255.642C305.429 255.788 302.271 256.202 299.197 256.893L296.581 250.433C295.866 248.672 293.851 247.835 292.079 248.566L280.977 253.139C279.201 253.872 278.334 255.896 279.045 257.664L281.675 264.204C278.986 265.917 276.442 267.856 274.078 270.006L268.495 265.68C266.991 264.513 264.805 264.803 263.616 266.325L256.158 275.866C254.962 277.394 255.216 279.585 256.722 280.756L262.318 285.108C260.829 287.907 259.574 290.865 258.563 293.948L251.461 293.016C249.555 292.767 247.778 294.118 247.492 296.039L245.708 308.074C245.422 310.002 246.741 311.77 248.653 312.02L255.776 312.954C255.861 316.202 256.215 319.399 256.848 322.508L250.164 325.295C248.361 326.046 247.476 328.119 248.186 329.926L252.64 341.242C253.352 343.055 255.397 343.913 257.203 343.156L263.892 340.357C265.572 343.093 267.491 345.673 269.62 348.071L265.164 353.858C263.959 355.425 264.216 357.666 265.743 358.863L275.298 366.358C276.826 367.557 279.045 367.255 280.248 365.684L284.651 359.935C287.463 361.433 290.44 362.68 293.544 363.674L292.541 370.85C292.267 372.815 293.607 374.613 295.537 374.865L307.599 376.446C309.527 376.7 311.31 375.31 311.578 373.345L312.552 366.224C315.832 366.084 319.056 365.66 322.19 364.953L324.835 371.532C325.569 373.359 327.626 374.222 329.426 373.458L340.676 368.692C342.472 367.931 343.331 365.836 342.592 364.013L339.945 357.481C342.692 355.709 345.278 353.695 347.677 351.471L353.174 355.746C354.71 356.941 356.913 356.639 358.094 355.076L365.461 345.31C366.636 343.751 366.346 341.524 364.811 340.335L359.363 336.113C360.849 333.232 362.081 330.191 363.059 327.027L369.872 327.92C371.784 328.172 373.535 326.806 373.783 324.873L375.33 312.808C375.578 310.881 374.23 309.119 372.324 308.87L365.532 307.978C365.392 304.69 364.978 301.463 364.279 298.328L370.58 295.692C372.352 294.951 373.19 292.905 372.452 291.122L367.85 279.999C367.115 278.222 365.087 277.382 363.319 278.119L356.984 280.76C355.258 278.05 353.304 275.496 351.138 273.136L355.323 267.671C356.489 266.151 356.204 263.975 354.688 262.81L345.225 255.539C343.713 254.378 341.543 254.664 340.375 256.18L336.161 261.651C333.366 260.201 330.417 258.995 327.34 258.039L328.279 251.168C328.537 249.278 327.214 247.545 325.324 247.297L313.5 245.746C311.614 245.499 309.868 246.828 309.604 248.718ZM267.921 304.802C271.337 281.024 293.16 264.354 316.683 267.44C340.205 270.525 356.726 292.225 353.568 316.035C350.389 339.99 328.521 356.988 304.741 353.868C280.959 350.75 264.482 328.722 267.921 304.802Z" fill="#D8DEE8"/>
<path d="M298.292 315.765L246.578 745.6C245.803 752.044 250.244 757.821 256.468 758.439L471.862 782.087C485.057 782.907 492.281 776.165 493.097 769.313L547.39 312.326C548.2 305.512 541.727 299.339 528.476 299.339L311.122 303.916C304.828 304.024 299.063 309.354 298.292 315.765Z" fill="url(#paint6_linear_150_1297)"/>
<path d="M288.597 315.026L236.599 747.01C235.82 753.488 240.278 759.295 246.522 759.916L469.824 782.15C476.825 782.846 483.242 777.781 484.06 770.894L538.658 311.547C539.472 304.696 534.33 299.191 527.252 299.311L301.472 303.121C295.159 303.224 289.372 308.583 288.597 315.026Z" fill="url(#paint7_linear_150_1297)"/>
<path d="M292.835 338.854L244.64 739.389C243.911 745.44 248.086 750.856 253.93 751.424L463.94 771.839C470.447 772.472 476.411 767.745 477.174 761.332L527.631 337.002C528.39 330.624 523.616 325.462 517.041 325.533L304.876 327.793C298.971 327.854 293.56 332.833 292.835 338.854Z" fill="#D8DEE8"/>
<path d="M405.453 314.728C405.177 317.027 406.827 318.869 409.141 318.838C411.457 318.81 413.56 316.918 413.836 314.614C414.112 312.31 412.456 310.469 410.14 310.503C407.824 310.538 405.727 312.43 405.453 314.728Z" fill="url(#paint8_linear_150_1297)"/>
<path d="M329.143 607.719C372.136 528.231 436.363 504.436 455.7 422.515C466.152 378.233 459.031 335.849 447.036 300.663L527.255 299.309C534.333 299.189 539.475 304.696 538.661 311.545L484.063 770.892C483.245 777.782 476.829 782.846 469.828 782.148L294.29 764.671C292.989 693.447 309.977 643.15 329.143 607.719Z" fill="white"/>
<path d="M76.5918 360.612C76.5918 318.374 113.436 284.14 157.651 284.144C200.559 284.148 234.421 316.581 234.421 356.584C234.421 396.587 200.559 430.748 157.651 432.942C113.434 435.204 76.5918 402.849 76.5918 360.612Z" fill="url(#paint9_linear_150_1297)"/>
<path d="M81.3579 357.242C81.3579 315.005 117.137 280.771 160.07 280.775C201.736 280.779 234.62 313.212 234.62 353.215C234.62 393.218 201.736 427.379 160.07 429.573C117.135 431.834 81.3579 399.478 81.3579 357.242Z" fill="url(#paint10_linear_150_1297)"/>
<g opacity="0.5">
<path opacity="0.5" d="M93.6064 356.92C93.6064 321.434 123.665 292.67 159.738 292.676C194.743 292.68 222.372 319.929 222.372 353.538C222.372 387.147 194.745 415.847 159.738 417.69C123.665 419.59 93.6064 392.406 93.6064 356.92Z" fill="white"/>
</g>
<path opacity="0.5" d="M157.255 298.129C192.261 298.133 219.889 325.382 219.889 358.991C219.889 366.982 218.312 374.69 215.46 381.831C219.877 373.232 222.374 363.609 222.374 353.539C222.374 319.93 194.747 292.681 159.74 292.677C131.918 292.675 107.69 309.791 98.054 333.898C108.965 312.704 131.581 298.127 157.255 298.129Z" fill="white"/>
<path d="M129.829 348.236V379.208C129.829 388.162 137.361 395.226 146.626 394.985L169.598 394.386C178.751 394.146 186.148 386.772 186.148 377.911V347.266L129.829 348.236ZM150.984 380.256L155.253 367.319C153.424 366.375 152.186 364.516 152.186 362.35C152.186 359.171 154.853 356.543 158.137 356.482C161.418 356.419 164.075 358.94 164.075 362.113C164.075 364.274 162.841 366.181 161.018 367.2L165.27 379.923L150.984 380.256Z" fill="white"/>
<path d="M179.617 344.58C177.179 344.621 175.202 342.735 175.202 340.366C175.202 331.262 167.56 323.955 158.135 324.076C148.678 324.198 140.958 331.751 140.958 340.912C140.958 343.295 138.955 345.26 136.48 345.303C134.004 345.343 131.994 343.444 131.994 341.056C131.994 327.113 143.753 315.636 158.137 315.476C172.444 315.315 184.024 326.419 184.024 340.228C184.024 342.591 182.053 344.54 179.617 344.58Z" fill="white"/>
<path d="M232.824 521.234C232.824 521.234 231.261 515.376 232.37 513.878C233.476 512.38 240.246 506.392 239.596 508.344C238.944 510.297 237.968 511.598 237.968 511.598C237.968 511.598 241.614 513.291 239.269 515.829C236.927 518.368 236.143 518.953 236.013 521.232C235.885 523.512 234.387 524.293 232.824 521.234Z" fill="url(#paint11_linear_150_1297)"/>
<path d="M167.797 774.111C167.797 774.111 166.969 779.178 167.074 780.98C167.18 782.783 187.191 783.705 187.392 782.355C187.592 781.005 184.085 778.855 181.615 778.098C179.144 777.339 171.914 775.317 171.914 775.317L167.797 774.111Z" fill="#1C2B58"/>
<path d="M172.654 769.061L172.016 775.362C172.016 775.362 169.692 776.899 167.644 775.713L166.619 768.856L172.654 769.061Z" fill="url(#paint12_linear_150_1297)"/>
<path d="M132.094 782.325C132.094 782.325 131.266 787.391 131.371 789.194C131.477 790.996 151.487 791.918 151.688 790.568C151.891 789.218 148.382 787.069 145.911 786.311C143.441 785.554 136.211 783.53 136.211 783.53L132.094 782.325Z" fill="url(#paint13_linear_150_1297)"/>
<path d="M136.952 777.274L136.315 783.575C136.315 783.575 133.99 785.112 131.942 783.926L130.917 777.069L136.952 777.274Z" fill="url(#paint14_linear_150_1297)"/>
<path d="M169.024 604.588C171.336 609.277 173.65 613.966 175.962 618.655C177.821 645.415 178.747 674.516 178.152 705.636C177.709 728.788 176.473 750.721 174.695 771.308C171.559 771.164 168.423 771.02 165.287 770.876C160.752 761.875 155.399 748.241 154.906 731.409C154.392 713.853 159.715 711.52 159.378 694.711C158.939 672.922 149.803 667.109 144.935 640.901C143.074 630.877 141.821 617.787 143.309 601.905C151.881 602.8 160.451 603.695 169.024 604.588Z" fill="url(#paint15_linear_150_1297)"/>
<path opacity="0.3" d="M143.311 601.905C147.939 602.388 152.567 602.871 157.197 603.354C165.53 617.854 167.856 632.944 166.392 639.62C164.324 649.065 158.851 652.09 159.154 661.571C159.452 670.953 164.98 673.387 168.485 684.444C170.913 692.1 170.272 699.14 168.891 712.907C166.11 740.637 159.414 749.118 165.022 758.209C166.616 760.794 169.488 763.869 175.115 766.217C174.977 767.918 174.841 769.624 174.697 771.306C171.561 771.164 168.424 771.018 165.288 770.876C160.753 761.875 155.401 748.241 154.907 731.409C154.394 713.853 159.716 711.52 159.379 694.711C158.941 672.922 149.804 667.111 144.937 640.903C143.075 630.879 141.821 617.789 143.311 601.905Z" fill="url(#paint16_linear_150_1297)"/>
<path d="M156.578 613.03C152.236 636.707 148.402 662.046 145.41 688.919C141.796 721.367 139.868 751.957 139.111 780.357C135.668 780.455 132.228 780.552 128.785 780.649C115.221 753.816 114.393 735.625 116.348 723.78C117.101 719.217 119.149 710.267 119.616 696.891C119.941 687.567 119.346 680.471 118.603 671.941C116.975 653.24 114.998 649.158 114.714 634.853C114.446 621.428 114.391 614.636 118.223 610.672C128.32 600.224 154.587 612.105 156.578 613.03Z" fill="url(#paint17_linear_150_1297)"/>
<path d="M231.024 520.331C233.314 520.171 235.602 520.013 237.892 519.852C243.291 541.675 239.418 562.843 227.231 570.628C208.188 582.791 172.797 559.875 165.129 534.922C161.763 523.969 162.528 508.164 169.257 505.093C171.125 504.24 174.023 504.108 180.302 507.632C199.052 518.159 199.545 538.056 209.077 539.741C213.312 540.492 220.157 537.79 231.024 520.331Z" fill="url(#paint18_linear_150_1297)"/>
<path d="M178.597 623.456C181.895 617.983 177.752 612.705 176.81 602.339C175.743 590.588 180.269 588.631 184.745 569.158C187.723 556.208 190.579 543.775 187.169 529.22C185.535 522.246 182.762 510.416 172.97 504.702C167.917 501.752 161.018 502.048 147.428 502.759C130.62 503.638 122.219 504.076 115.95 507.377C115.033 507.86 95.9683 518.231 94.655 535.135C93.3193 552.341 112.055 554.653 114.554 577.596C115.676 587.896 113.677 603.737 112.38 614.01C111.136 623.876 110.277 626.401 112.226 629.389C116.919 636.589 131.284 634.537 160.015 630.434C171.285 628.822 176.134 627.54 178.597 623.456Z" fill="url(#paint19_linear_150_1297)"/>
<path d="M134.88 573.904C133.664 578.375 129.296 581.715 126.255 592.593C125.599 594.941 120.921 611.665 126.988 615.782C130.491 618.159 133.638 613.655 142.143 613.066C156.88 612.047 163.901 624.433 173.529 621.05C175.199 620.461 177.404 619.211 179.606 616.336C180.045 618.926 179.97 621.177 178.597 623.457C176.137 627.541 171.286 628.824 160.016 630.434C131.285 634.536 116.92 636.588 112.227 629.388C110.28 626.402 111.136 623.875 112.381 614.01C113.678 603.735 115.677 587.894 114.555 577.596C112.056 554.652 93.3182 552.34 94.6559 535.135C95.0132 530.535 96.7041 526.441 98.9674 522.875C122.735 532.492 138.698 559.851 134.88 573.904Z" fill="url(#paint20_linear_150_1297)"/>
<path d="M104.861 607.746L109.617 610.783C110.472 609.796 112.449 607.807 115.534 607.129C119.012 606.364 123.004 607.462 123.096 608.57C123.171 609.459 120.739 610.356 120.364 610.494C117.329 611.615 115.078 610.683 113.852 611.903C113.417 612.334 112.877 613.137 111.633 613.88C111.306 614.075 110.965 614.248 110.785 614.319C108.759 615.106 105.286 611.58 104.987 611.272L104.861 607.746Z" fill="url(#paint21_linear_150_1297)"/>
<path d="M118.91 545.376C122.351 537.137 124.734 524.521 119.3 505.787C83.4967 519.895 65.2379 553.339 72.3668 579.849C78.2433 601.705 99.6261 612.35 104.396 614.591C105.507 612.063 106.617 609.538 107.725 607.013C102.198 600.859 95.9682 591.757 96.8492 581.37C98.0712 566.97 111.945 562.055 118.91 545.376Z" fill="url(#paint22_linear_150_1297)"/>
<path d="M146.546 485.809C146.546 485.809 146.264 492.071 144.319 496.762C142.562 501.001 133.322 503.666 131.448 504.612C129.574 505.558 134.958 508.324 140.363 508.866C145.769 509.41 161.204 508.182 163.987 506.134C166.77 504.086 161.75 504.24 157.893 502.824C154.034 501.407 151.804 493.862 152.486 490.437C153.168 487.011 146.546 485.809 146.546 485.809Z" fill="url(#paint23_linear_150_1297)"/>
<path d="M155.096 483.538C157.901 480.781 158.293 480.461 158.597 479.509C159.823 475.686 156.858 470.449 152.969 469.16C152.766 469.093 150.157 468.259 149.163 469.39C148.316 470.35 149.56 471.677 148.97 473.531C148.416 475.264 146.913 475.394 144.126 477.668C141.831 479.539 140.406 480.704 140.077 482.342C139.399 485.718 143.485 490.61 147.102 490.478C148.403 490.429 148.759 489.766 155.096 483.538Z" fill="url(#paint24_linear_150_1297)"/>
<path d="M147.458 491.001C147.458 491.001 150.44 494.377 154.981 493.26C159.047 492.262 158.009 482.928 155.034 481.438C154.041 480.941 152.236 480.982 150.88 481.635C150.079 482.021 149.855 482.423 148.534 483.028C147.316 483.586 146.928 483.509 146.601 483.903C146.191 484.394 146.015 485.453 147.3 488.007C146.374 487.351 145.377 487.213 144.766 487.648C144.669 487.717 144.421 487.96 144.314 488.279C143.926 489.434 145.128 490.609 147.458 491.001Z" fill="url(#paint25_linear_150_1297)"/>
<path d="M487.515 364.628L488.565 370.293L466.961 370.344L279.481 370.789C274.658 370.801 270.223 374.787 269.561 379.694L224.806 678.802C224.141 683.753 231.846 691.31 236.641 691.68L319.815 698.072V697.971L444.23 707.515C444.232 707.515 444.234 707.515 444.236 707.515L444.537 707.641C449.849 708.051 454.723 704.196 455.413 698.967C455.413 698.965 455.413 698.99 455.415 698.987L497.328 379.637C498.01 374.457 492.858 364.614 487.515 364.628Z" fill="url(#paint26_linear_150_1297)"/>
<path d="M451.174 692.745C450.488 697.976 445.616 701.885 440.304 701.477L232.193 685.498C227.4 685.131 224.065 680.819 224.731 675.868L265.416 373.579C266.075 368.673 270.511 364.686 275.33 364.672L484.616 364.095C489.957 364.081 493.745 368.269 493.067 373.449L451.174 692.745Z" fill="url(#paint27_linear_150_1297)"/>
<path d="M453.939 526.503C453.598 529.093 451.178 531.026 448.535 530.928L265.373 524.244C262.956 524.156 261.255 522.165 261.588 519.691L265.189 493C265.521 490.528 267.728 488.855 270.148 488.922L453.47 494.013C456.117 494.086 457.99 495.955 457.651 498.543L453.939 526.503Z" fill="white"/>
<path d="M446.847 580.735C446.505 583.331 444.084 585.546 441.441 585.414L258.417 576.373C256.001 576.253 254.321 573.941 254.654 571.465L258.283 544.258C258.616 541.784 260.843 539.663 263.26 539.76L446.396 547.147C449.039 547.254 450.908 549.646 450.567 552.238L446.847 580.735Z" fill="white"/>
<path opacity="0.1" d="M457.666 498.436C457.232 498.296 456.765 498.219 456.268 498.205L272.941 493.116C270.524 493.047 268.315 494.723 267.986 497.19L264.379 523.881C264.371 523.95 264.365 524.015 264.359 524.084C262.5 523.56 261.304 521.798 261.584 519.687L265.191 492.996C265.52 490.53 267.729 488.851 270.146 488.922L453.473 494.011C456.073 494.088 457.938 495.899 457.666 498.436Z" fill="url(#paint28_linear_150_1297)"/>
<path opacity="0.1" d="M450.607 551.637C450.166 551.462 449.691 551.357 449.188 551.336L266.056 543.947C263.638 543.85 261.408 545.975 261.079 548.45L257.443 575.658C257.423 575.833 257.409 576.001 257.409 576.176C255.549 575.575 254.368 573.576 254.648 571.464L258.284 544.256C258.612 541.782 260.841 539.656 263.261 539.754L446.392 547.142C448.838 547.248 450.613 549.288 450.607 551.637Z" fill="url(#paint29_linear_150_1297)"/>
<path d="M398.17 624.692C398.71 620.598 395.816 616.827 391.701 616.589L296.956 611.149C293.033 610.924 289.409 614.228 288.876 618.215L284.966 647.685C284.432 651.678 287.154 655.498 291.076 655.766L385.772 662.245C389.884 662.527 393.672 659.054 394.214 654.954L398.17 624.692Z" fill="url(#paint30_linear_150_1297)"/>
<path d="M405.326 426.144C404.077 435.564 399.238 444.067 392.357 450.321C384.942 457.067 375.174 461.171 365.017 460.974C354.91 460.779 346.403 456.364 340.94 449.469C335.902 443.113 333.434 434.645 334.67 425.382C337.242 406.113 354.946 390.535 374.374 390.582C393.987 390.625 407.92 406.545 405.326 426.144Z" fill="url(#paint31_linear_150_1297)"/>
<path d="M386.434 415.437C385.313 423.877 377.523 430.641 369.064 430.539C360.64 430.438 354.741 423.563 355.856 415.183C356.972 406.806 364.684 400.049 373.112 400.087C381.576 400.126 387.554 406.997 386.434 415.437Z" fill="white"/>
<path d="M392.358 450.322C384.943 457.068 375.176 461.172 365.018 460.975C354.911 460.78 346.404 456.365 340.942 449.47C347.194 440.76 357.505 434.966 368.457 435.109C379.467 435.251 388.341 441.352 392.358 450.322Z" fill="white"/>
<path opacity="0.4" d="M493.065 373.448L451.174 692.744C450.488 697.973 445.306 701.86 439.996 701.452L315.002 691.855C309.064 685.775 304.174 678.48 300.685 669.725C298.972 665.432 297.717 660.8 296.883 655.928C294.563 642.445 295.462 627.12 298.846 612.076C301.448 600.496 305.528 589.064 310.751 578.748C314.929 570.5 319.841 562.959 325.328 556.622C329.278 552.061 333.551 547.63 338.057 543.284C343.491 538.039 349.266 532.919 355.224 527.847C369.106 516.018 383.971 504.454 397.733 492.243C429.489 464.072 455.252 432.595 449.053 387.681C448.854 386.267 446.92 375.433 444.447 364.204L484.306 364.094C489.644 364.08 493.745 368.27 493.065 373.448Z" fill="white"/>
<defs>
<radialGradient id="paint0_radial_150_1297" cx="0" cy="0" r="1" gradientUnits="userSpaceOnUse" gradientTransform="translate(360 512) rotate(90) scale(303)">
<stop stop-color="#F7A400"/>
<stop offset="1" stop-color="#A65A00" stop-opacity="0.94"/>
</radialGradient>
<linearGradient id="paint1_linear_150_1297" x1="232.047" y1="209" x2="417.757" y2="806.559" gradientUnits="userSpaceOnUse">
<stop stop-color="#444CE7" stop-opacity="0.81"/>
<stop offset="1" stop-opacity="0"/>
</linearGradient>
<radialGradient id="paint2_radial_150_1297" cx="0" cy="0" r="1" gradientUnits="userSpaceOnUse" gradientTransform="translate(360 511) rotate(90) scale(264)">
<stop stop-color="#F7A400"/>
<stop offset="1" stop-color="#F7A400" stop-opacity="0.15"/>
</radialGradient>
<linearGradient id="paint3_linear_150_1297" x1="360" y1="247" x2="413.333" y2="745.667" gradientUnits="userSpaceOnUse">
<stop stop-color="#FFEDC8"/>
<stop offset="1" stop-color="#F7A400" stop-opacity="0.15"/>
</linearGradient>
<linearGradient id="paint4_linear_150_1297" x1="435.604" y1="636.957" x2="583.864" y2="236.538" gradientUnits="userSpaceOnUse">
<stop offset="0.921" stop-color="#1C2B58"/>
<stop offset="1" stop-color="#2D31A6" stop-opacity="0.59"/>
</linearGradient>
<linearGradient id="paint5_linear_150_1297" x1="325.849" y1="597.426" x2="613.427" y2="597.426" gradientUnits="userSpaceOnUse">
<stop stop-color="#F7A400"/>
<stop offset="1" stop-color="#E09351" stop-opacity="0.58"/>
</linearGradient>
<linearGradient id="paint6_linear_150_1297" x1="399.649" y1="529.63" x2="484.534" y2="538.891" gradientUnits="userSpaceOnUse">
<stop stop-color="#1C2B58"/>
<stop offset="0.9964" stop-color="#26264F"/>
</linearGradient>
<linearGradient id="paint7_linear_150_1297" x1="324.857" y1="315.66" x2="534.754" y2="1030.24" gradientUnits="userSpaceOnUse">
<stop stop-color="#1C2B58"/>
<stop offset="0.9964" stop-color="#26264F"/>
</linearGradient>
<linearGradient id="paint8_linear_150_1297" x1="403.51" y1="298.059" x2="650.196" y2="966.168" gradientUnits="userSpaceOnUse">
<stop stop-color="#FFC444"/>
<stop offset="0.9964" stop-color="#F36F56"/>
</linearGradient>
<linearGradient id="paint9_linear_150_1297" x1="-1751.71" y1="2156.98" x2="-1582.98" y2="1997.87" gradientUnits="userSpaceOnUse">
<stop stop-color="#311944"/>
<stop offset="1" stop-color="#893976"/>
</linearGradient>
<linearGradient id="paint10_linear_150_1297" x1="106.706" y1="401.715" x2="241.918" y2="279.013" gradientUnits="userSpaceOnUse">
<stop stop-color="#E09351"/>
<stop offset="1" stop-color="#F7A400"/>
</linearGradient>
<linearGradient id="paint11_linear_150_1297" x1="243.7" y1="508.41" x2="216.906" y2="535.683" gradientUnits="userSpaceOnUse">
<stop stop-color="#FFC444"/>
<stop offset="0.9964" stop-color="#F36F56"/>
</linearGradient>
<linearGradient id="paint12_linear_150_1297" x1="171.292" y1="786.914" x2="168.411" y2="755.65" gradientUnits="userSpaceOnUse">
<stop stop-color="#FFC444"/>
<stop offset="0.9964" stop-color="#F36F56"/>
</linearGradient>
<linearGradient id="paint13_linear_150_1297" x1="141.614" y1="767.338" x2="141.84" y2="706.834" gradientUnits="userSpaceOnUse">
<stop stop-color="#3D4899"/>
<stop offset="0.9964" stop-color="#6165D7"/>
</linearGradient>
<linearGradient id="paint14_linear_150_1297" x1="135.14" y1="790.245" x2="132.259" y2="758.98" gradientUnits="userSpaceOnUse">
<stop stop-color="#FFC444"/>
<stop offset="0.9964" stop-color="#F36F56"/>
</linearGradient>
<linearGradient id="paint15_linear_150_1297" x1="170.197" y1="629.381" x2="148.02" y2="742.761" gradientUnits="userSpaceOnUse">
<stop stop-color="#3D4899"/>
<stop offset="1" stop-color="#4958C9"/>
</linearGradient>
<linearGradient id="paint16_linear_150_1297" x1="181.264" y1="684.823" x2="147.946" y2="687.494" gradientUnits="userSpaceOnUse">
<stop stop-color="#1C2B58"/>
<stop offset="0.531" stop-color="#1C2B58"/>
</linearGradient>
<linearGradient id="paint17_linear_150_1297" x1="162.836" y1="691.09" x2="112.255" y2="695.144" gradientUnits="userSpaceOnUse">
<stop offset="0.646" stop-color="#1C2B58"/>
<stop offset="1" stop-color="#4958C9" stop-opacity="0.99"/>
</linearGradient>
<linearGradient id="paint18_linear_150_1297" x1="202.789" y1="524.143" x2="165.367" y2="764.475" gradientUnits="userSpaceOnUse">
<stop stop-color="#1C2B58"/>
<stop offset="0.9964" stop-color="#6165D7"/>
</linearGradient>
<linearGradient id="paint19_linear_150_1297" x1="123.198" y1="787.943" x2="105.099" y2="1030.5" gradientUnits="userSpaceOnUse">
<stop stop-color="#1C2B58"/>
<stop offset="0.9964" stop-color="#6165D7"/>
</linearGradient>
<linearGradient id="paint20_linear_150_1297" x1="61.6616" y1="705.241" x2="161.556" y2="534.13" gradientUnits="userSpaceOnUse">
<stop stop-color="#F7A400"/>
<stop offset="0.9964" stop-color="#F7A400" stop-opacity="0.35"/>
</linearGradient>
<linearGradient id="paint21_linear_150_1297" x1="97.0739" y1="586.931" x2="118.142" y2="615.392" gradientUnits="userSpaceOnUse">
<stop stop-color="#FFC444"/>
<stop offset="0.9964" stop-color="#F36F56"/>
</linearGradient>
<linearGradient id="paint22_linear_150_1297" x1="78.9768" y1="784.643" x2="60.8771" y2="1027.2" gradientUnits="userSpaceOnUse">
<stop stop-color="#1C2B58"/>
<stop offset="0.9964" stop-color="#6165D7"/>
</linearGradient>
<linearGradient id="paint23_linear_150_1297" x1="156.904" y1="516.01" x2="136.621" y2="490.775" gradientUnits="userSpaceOnUse">
<stop stop-color="#FFC444"/>
<stop offset="0.9964" stop-color="#F36F56"/>
</linearGradient>
<linearGradient id="paint24_linear_150_1297" x1="141.481" y1="506.742" x2="152.231" y2="471.378" gradientUnits="userSpaceOnUse">
<stop stop-color="#444B8C"/>
<stop offset="0.9964" stop-color="#1C2B58"/>
</linearGradient>
<linearGradient id="paint25_linear_150_1297" x1="168.897" y1="494.403" x2="138.66" y2="480.944" gradientUnits="userSpaceOnUse">
<stop stop-color="#FFC444"/>
<stop offset="0.9964" stop-color="#F36F56"/>
</linearGradient>
<linearGradient id="paint26_linear_150_1297" x1="224.767" y1="536.15" x2="497.39" y2="536.15" gradientUnits="userSpaceOnUse">
<stop stop-color="#311944"/>
<stop offset="1" stop-color="#893976"/>
</linearGradient>
<linearGradient id="paint27_linear_150_1297" x1="390.512" y1="1072.35" x2="358.005" y2="509.281" gradientUnits="userSpaceOnUse">
<stop offset="0.003597" stop-color="#F36F56"/>
<stop offset="1" stop-color="#E09351"/>
</linearGradient>
<linearGradient id="paint28_linear_150_1297" x1="261.543" y1="506.504" x2="457.692" y2="506.504" gradientUnits="userSpaceOnUse">
<stop offset="0.003597" stop-color="#F36F56"/>
<stop offset="1" stop-color="#E09351"/>
</linearGradient>
<linearGradient id="paint29_linear_150_1297" x1="254.609" y1="557.964" x2="450.606" y2="557.964" gradientUnits="userSpaceOnUse">
<stop offset="0.003597" stop-color="#F36F56"/>
<stop offset="1" stop-color="#E09351"/>
</linearGradient>
<linearGradient id="paint30_linear_150_1297" x1="350.946" y1="576.964" x2="307.132" y2="854.811" gradientUnits="userSpaceOnUse">
<stop offset="0.003597" stop-color="#F36F56"/>
<stop offset="1" stop-color="#E09351"/>
</linearGradient>
<linearGradient id="paint31_linear_150_1297" x1="365.359" y1="287.676" x2="374.716" y2="566.314" gradientUnits="userSpaceOnUse">
<stop offset="0.003597" stop-color="#F36F56"/>
<stop offset="1" stop-color="#E09351"/>
</linearGradient>
</defs>
</svg>
